<svg xmlns="http://www.w3.org/2000/svg" xmlns:xlink="http://www.w3.org/1999/xlink" version="1.1" id="Layer_2" x="0px" y="0px" viewBox="0 0 2000 2000" enable-background="new 0 0 2000 2000" xml:space="preserve">
<ellipse xmlns="http://www.w3.org/2000/svg" id="Floor" opacity="0.52" fill="#D3D3D3" cx="1000" cy="1384.679" rx="820" ry="89.477"/>
<g xmlns="http://www.w3.org/2000/svg" id="check">
	<rect x="767.648" y="525.845" fill="#D3D3D3" width="932.811" height="631.268"/>
	<rect x="833.874" y="608.98" opacity="0.5" fill="#2A94F4" width="615.768" height="400.179"/>
	<rect x="804.284" y="580.799" fill="#0E538C" width="615.768" height="400.179"/>
	<rect x="1490.506" y="606.162" fill="#F7F7F7" width="176.135" height="40.863"/>
	<rect x="1490.506" y="672.389" fill="#F7F7F7" width="176.135" height="40.863"/>
	<rect x="1490.506" y="738.616" fill="#F7F7F7" width="176.135" height="40.863"/>
	<rect x="1490.506" y="871.069" fill="#F7F7F7" width="176.135" height="40.863"/>
	<rect x="921.237" y="1078.204" fill="#F7F7F7" width="517.132" height="23.954"/>
	<circle fill="#69d30b" cx="1112.168" cy="780.888" r="121.181"/>
	<polyline fill="none" stroke="#F7F7F7" stroke-width="25" stroke-miterlimit="10" points="1046.646,771.974 1106.286,831.615    1241.099,696.802  "/>
</g>
<g xmlns="http://www.w3.org/2000/svg" id="Person">
	<g>
		<path fill="#69d30b" d="M304.06,972.523l280.407-7.045c0,0,8.454,259.271,104.272,255.043    c95.817-4.227,119.772-50.727,119.772-50.727l19.727,54.954c0,0-95.817,156.408-253.634,111.317S380.151,1245.885,304.06,972.523z    "/>
	</g>
	<g>
		<g>
			<path fill="#0B4870" d="M1203.744,1365.209c1.919,11.898,2.07,24.167-0.492,35.454c11.302,4.263,21.368,7.409,24.958,6.705     c9.778-1.917,11.036-86.64,7.711-96.345C1232.824,1301.979,1212.176,1356.338,1203.744,1365.209z"/>
		</g>
		<g>
			<path fill="#FFE3CA" d="M1203.744,1365.209c-0.615,0.647-1.168,1.061-1.641,1.182c-6.963,1.771-40.133-21.369-40.133-21.369     l-1.354,37.626c0,0,23.155,10.667,42.637,18.015C1205.814,1389.376,1205.663,1377.107,1203.744,1365.209z"/>
		</g>
	</g>
	<g>
		<path fill="#FFE3CA" d="M591.513,1035.932c0,0,69.045,121.181,80.318,140.908c11.273,19.727-14.091,23.954-14.091,23.954    l-26.773-1.409l-43.682-111.317l4.227-56.363"/>
	</g>
	<g>
		<path fill="#FFE3CA" d="M509.786,978.159c3.409,4.091,8.141,5.862,13.232,6.611c49.275-11.952,21.995-109.474,21.995-109.474    l-81.727,11.273l4.227,71.863c0,0,2.86,10.202,12.372,18.304l-3.917,18.332l56.363,31l-8.055-34.93    C518.708,988.004,513.791,983.766,509.786,978.159z"/>
	</g>
	<g>
		<path fill="#FCD2B1" d="M523.018,984.771c-5.091-0.749-18.277-8.157-21.686-12.248c5.636,11.273,12.682,18.318,22.944,18.615    l-1.456-6.313C522.888,984.808,522.95,984.787,523.018,984.771z"/>
	</g>
	<g>
		<path fill="#2A94F4" d="M478.786,992.25c0,0-42.272,18.318-47.909,45.091c-5.636,26.773,33.818,105.681,71.863,139.499    c38.045,33.818,40.863,64.818,40.863,64.818l92.999-54.954c0,0-26.773-62-36.636-92.999c-9.864-31,11.273-71.863-74.681-98.636    c0,0,4.751,17.339,0,16.909C490.583,1008.838,478.786,992.25,478.786,992.25z"/>
	</g>
	<g>
		<path fill="#0B4870" d="M649.285,1190.93c0,0,291.68,29.591,367.77,63.409c76.09,33.818,169.09,95.817,169.09,95.817    l-21.136,36.636c0,0-181.771-78.908-202.908-81.727c-21.136-2.818-304.361,1.409-332.543-7.045    C601.376,1289.566,649.285,1190.93,649.285,1190.93z"/>
	</g>
	<g>
		<path fill="#2A94F4" d="M532.061,999.176c0,0,21.406-13.971,42.542,4.347c21.136,18.318,29.591,39.454,29.591,39.454    l-28.182,14.091L532.061,999.176z"/>
	</g>
	<g>
		<path fill="#FFE3CA" d="M440.741,1102.158c0,0,75.915,124.593,111.317,111.317c67.636-25.363,178.953-111.317,178.953-111.317    l-19.727-19.727c0,0-143.726,85.954-157.817,84.545c-14.091-1.409-78.909-101.454-78.909-101.454L440.741,1102.158z"/>
	</g>
	<g>
		<g>
			<path fill="#0B4870" d="M750.425,1401.174c-11.981,1.301-24.241,0.818-35.381-2.324c-4.841,11.066-8.504,20.957-7.987,24.578     c1.409,9.864,85.954,15.5,95.817,12.682C812.067,1433.484,758.848,1410.053,750.425,1401.174z"/>
		</g>
		<g>
			<path fill="#FFE3CA" d="M750.425,1401.174c-0.615-0.648-0.999-1.221-1.095-1.7c-1.409-7.045,23.415-38.975,23.415-38.975     l-37.505-3.298c0,0-11.85,22.573-20.195,41.649C726.183,1401.992,738.444,1402.476,750.425,1401.174z"/>
		</g>
	</g>
	<g>
		<path fill="#2A94F4" d="M418.196,1061.295c0,0-1.379-36.486,14.81-44.311c16.189-7.825,38.735,16.13,59.871,55.584    c0,0-50.727,35.227-53.545,35.227C436.514,1107.795,418.196,1081.022,418.196,1061.295z"/>
	</g>
	<g>
		<polygon fill="#69d30b" points="716.921,1031 684.032,1141.718 814.147,1125.408 850.783,1032.409   "/>
	</g>
	<g>
		<path fill="#0E538C" d="M543.604,1241.657c0,0,53.545,85.954,105.681,56.363c52.136-29.591,156.408-108.499,156.408-108.499    l-84.545,176.135l46.5,5.636c0,0,184.589-259.271,115.545-280.407c-69.045-21.136-250.516,97.346-263.348,97.286    S543.604,1241.657,543.604,1241.657z"/>
	</g>
	<g>
		<path fill="#FFE3CA" d="M706.188,1071.608l-7.195,19.427c0,0,19.337-5.786,27.792-12.832s18.318-19.727,22.545-16.909    c4.227,2.818-2.818,19.727-5.636,29.591c-2.818,9.864-64.128,49.078-64.128,49.078S684.182,1079.103,706.188,1071.608z"/>
	</g>
	<g>
		<path fill="#0B4870" d="M484.602,890.257c0,0,6.866,37.176-0.18,31.539c-5.925-4.74-19.937-5.157-13.491,5.876    c6.446,11.033,10.673,8.215,10.673,8.215s14.091,42.272,3.718,64.458c-7.359,15.74,8.964,35.587-6.536,35.587    s-37.356-19.038-37.356-19.038s-19.517,14.93-16.189,45.81c3.328,30.88-46.5,28.182-38.045,5.636    c8.454-22.545,11.273-25.363,5.636-54.954c-5.636-29.591,21.136-31,29.591-53.545c8.454-22.545-1.409-25.363,0-46.5    c1.409-21.136,23.954-39.454,39.454-35.227c0,0,22.545-38.045,50.727-35.227c28.182,2.818,49.318,22.545,49.318,35.227    C561.922,893.356,507.328,902.399,484.602,890.257z"/>
	</g>
	<g>
		
			<rect x="348.824" y="1300.463" transform="matrix(0.5813 -0.8137 0.8137 0.5813 -890.5023 873.3504)" fill="#69d30b" stroke="#69d30b" stroke-width="7" stroke-miterlimit="10" width="109.092" height="3"/>
	</g>
</g>
<g xmlns="http://www.w3.org/2000/svg" id="Plant">
	<g opacity="0.5">
		<path fill="#69d30b" d="M1554.647,1198.157c-34.411-2.132-63.576-31.582-63.803-56.415c-0.187-20.512,19.479-25.839,20.148-51.714    c0.578-22.349-13.863-27.308-11.417-46.341c2.568-19.984,22.14-42.937,45.669-42.983c27.042-0.052,45.446,30.179,47.013,54.4    c1.065,16.465-9.004,18.741-8.731,34.252c0.559,31.735,40.174,40.773,39.625,64.474    C1622.648,1175.588,1588.519,1200.256,1554.647,1198.157z"/>
	</g>
	<g>
		<rect x="1552.333" y="1034.285" fill="#F7F7F7" width="2" height="180.662"/>
	</g>
	<g>
		<path fill="#F7F7F7" d="M1553.065,1097c-16.717-1.124-19.036-25.654-19.127-26.697l1.992-0.174    c0.021,0.238,2.26,23.866,17.27,24.875L1553.065,1097z"/>
	</g>
	<g>
		<path fill="#69d30b" d="M1529.024,1213.604h47.883c4.692,0,8.423,3.938,8.17,8.623l-6.522,120.948    c-0.227,4.216-3.625,7.566-7.843,7.735l-34.859,1.394c-4.473,0.179-8.26-3.271-8.498-7.741l-6.501-122.343    C1520.604,1217.538,1524.334,1213.604,1529.024,1213.604z"/>
	</g>
	<g>
		<path fill="#F7F7F7" d="M1553.065,1160.131c-11.963-0.805-13.611-18.232-13.676-18.975l1.992-0.173    c0.015,0.165,1.563,16.462,11.818,17.151L1553.065,1160.131z"/>
	</g>
	<g>
		<path fill="#F7F7F7" d="M1552.445,1133.939l-0.098-1.998c14.016-0.679,16.063-16.353,16.082-16.511l1.986,0.238    C1570.395,1115.845,1568.128,1133.18,1552.445,1133.939z"/>
	</g>
	<g>
		<path fill="#F7F7F7" d="M1553.117,1180.28l-0.098-1.998c9.885-0.479,11.324-11.252,11.38-11.711l1.986,0.24    C1566.37,1166.94,1564.699,1179.719,1553.117,1180.28z"/>
	</g>
</g>
</svg>