<svg xmlns="http://www.w3.org/2000/svg" width="136.719" height="37" viewBox="0 0 136.719 37">
  <metadata><?xpacket begin="﻿" id="W5M0MpCehiHzreSzNTczkc9d"?>
<x:xmpmeta xmlns:x="adobe:ns:meta/" x:xmptk="Adobe XMP Core 5.6-c138 79.159824, 2016/09/14-01:09:01        ">
   <rdf:RDF xmlns:rdf="http://www.w3.org/1999/02/22-rdf-syntax-ns#">
      <rdf:Description rdf:about=""/>
   </rdf:RDF>
</x:xmpmeta>





















<?xpacket end="w"?></metadata>
<defs>
    <style>
      .cls-1, .cls-2 {
        fill: #fff;
      }

      .cls-1, .cls-3 {
        fill-rule: evenodd;
      }

      .cls-3 {
        fill: #3366ff;
      }
    </style>
  </defs>
  <path id="Saaskit" class="cls-1" d="M54.89,29.24c4.08,0,6.78-2.31,6.78-5.94,0-3.51-2.76-4.77-5.67-6.42-2.7-1.35-3.72-1.98-3.72-3.39a2.033,2.033,0,0,1,2.31-2.1,2.527,2.527,0,0,1,2.76,2.52v0.54a0.347,0.347,0,0,0,.36.36h3.45a0.347,0.347,0,0,0,.36-0.36v-0.6c0-3.63-2.79-6.09-6.87-6.09-3.87,0-6.54,2.22-6.54,5.759,0,3.75,3.03,5.31,5.7,6.66,2.46,1.26,3.66,1.89,3.66,3.3a2.113,2.113,0,0,1-2.4,2.13,2.554,2.554,0,0,1-2.82-2.46v-0.6a0.347,0.347,0,0,0-.36-0.36H48.44a0.347,0.347,0,0,0-.36.36v0.81C48.08,26.87,50.78,29.24,54.89,29.24Zm14.82-15.9c-3.42,0-5.91,1.86-6.12,4.62a0.287,0.287,0,0,0,.33.33l3.63,0.21a0.392,0.392,0,0,0,.42-0.3,1.652,1.652,0,0,1,1.77-1.23,1.828,1.828,0,0,1,1.98,1.98v0.69a0.142,0.142,0,0,1-.15.15H69.35c-3.75,0-6.12,1.35-6.12,4.89,0,3.57,2.4,4.56,4.71,4.56a4.371,4.371,0,0,0,3.6-1.47c0.09-.12.18-0.06,0.18,0.06v0.81a0.347,0.347,0,0,0,.36.36h3.51a0.347,0.347,0,0,0,.36-0.36V18.41C75.949,15.441,73.4,13.34,69.71,13.34ZM69.26,26.03a1.561,1.561,0,0,1-1.74-1.62c0-1.2.93-1.86,2.34-1.86h1.71a0.142,0.142,0,0,1,.15.15v1.26A2.235,2.235,0,0,1,69.26,26.03Zm15.03-12.69c-3.42,0-5.91,1.86-6.12,4.62a0.288,0.288,0,0,0,.33.33l3.63,0.21a0.392,0.392,0,0,0,.42-0.3,1.652,1.652,0,0,1,1.77-1.23,1.828,1.828,0,0,1,1.98,1.98v0.69a0.142,0.142,0,0,1-.15.15h-2.22c-3.75,0-6.12,1.35-6.12,4.89,0,3.57,2.4,4.56,4.71,4.56a4.371,4.371,0,0,0,3.6-1.47c0.09-.12.18-0.06,0.18,0.06v0.81a0.347,0.347,0,0,0,.36.36h3.51a0.347,0.347,0,0,0,.36-0.36V18.41C90.529,15.441,87.979,13.34,84.289,13.34Zm-0.45,12.69a1.562,1.562,0,0,1-1.74-1.62c0-1.2.93-1.86,2.34-1.86h1.71a0.142,0.142,0,0,1,.15.15v1.26A2.235,2.235,0,0,1,83.839,26.03Zm14.85,3.18c3.6,0,6-1.71,6-4.62,0-2.85-2.4-3.87-4.5-4.56-1.71-.6-3.42-0.84-3.42-2.01a1.568,1.568,0,0,1,1.8-1.35,1.656,1.656,0,0,1,1.92,1.47v0.21a0.322,0.322,0,0,0,.36.24h3.21a0.324,0.324,0,0,0,.36-0.33c0-2.94-2.31-4.89-5.91-4.89-3.45,0-5.79,1.8-5.79,4.77,0,2.85,2.22,3.93,4.05,4.56,1.8,0.72,3.69.87,3.69,2.04a1.549,1.549,0,0,1-1.8,1.32c-1.17,0-2.04-.63-2.04-1.5V24.35a0.306,0.306,0,0,0-.36-0.21h-3.33a0.347,0.347,0,0,0-.36.36v0.24C92.569,27.38,94.939,29.21,98.689,29.21Zm8.4-.21h3.51a0.347,0.347,0,0,0,.36-0.36V24.38a0.425,0.425,0,0,1,.06-0.18l1.44-1.98a0.11,0.11,0,0,1,.21.03l2.43,6.45a0.423,0.423,0,0,0,.42.3h3.689a0.273,0.273,0,0,0,.27-0.42L115.4,19.16a0.256,0.256,0,0,1,0-.21l3.539-4.92c0.18-.24.09-0.45-0.21-0.45h-3.809a0.426,0.426,0,0,0-.42.21l-3.36,4.65c-0.09.12-.18,0.06-0.18-0.06V8.361A0.347,0.347,0,0,0,110.6,8h-3.51a0.347,0.347,0,0,0-.36.36V28.64A0.347,0.347,0,0,0,107.089,29Zm16.68-16.889a2.394,2.394,0,0,0,2.52-2.52,2.52,2.52,0,0,0-5.04,0A2.394,2.394,0,0,0,123.769,12.111ZM122,29h3.51a0.347,0.347,0,0,0,.36-0.36V13.94a0.347,0.347,0,0,0-.36-0.36H122a0.347,0.347,0,0,0-.36.36v14.7A0.347,0.347,0,0,0,122,29Zm14.729-12.6V13.94a0.347,0.347,0,0,0-.36-0.36h-2.31a0.142,0.142,0,0,1-.15-0.15V9.981a0.347,0.347,0,0,0-.36-0.36h-3.33a0.347,0.347,0,0,0-.36.36v3.45a0.141,0.141,0,0,1-.15.15h-1.379a0.348,0.348,0,0,0-.361.36V16.4a0.347,0.347,0,0,0,.361.36h1.379a0.141,0.141,0,0,1,.15.15v8.34c0,3.09,1.83,3.72,4.68,3.72,0.48,0,.99,0,1.5-0.03a0.331,0.331,0,0,0,.36-0.36V25.67a0.347,0.347,0,0,0-.36-0.36h-0.6c-1.02.03-1.53-.45-1.53-1.71V16.91a0.142,0.142,0,0,1,.15-0.15h2.31A0.346,0.346,0,0,0,136.728,16.4Z"/>
  <g>
    <path id="Rounded_Rectangle_1" data-name="Rounded Rectangle 1" class="cls-2" d="M3,0H34a3,3,0,0,1,3,3V27A10,10,0,0,1,27,37H3a3,3,0,0,1-3-3V3A3,3,0,0,1,3,0Z"/>
    <path id="S." class="cls-3" d="M14.89,29.24c4.08,0,6.78-2.31,6.78-5.94,0-3.51-2.76-4.77-5.67-6.42-2.7-1.35-3.72-1.98-3.72-3.39a2.033,2.033,0,0,1,2.31-2.1,2.527,2.527,0,0,1,2.76,2.52v0.54a0.347,0.347,0,0,0,.36.36h3.45a0.347,0.347,0,0,0,.36-0.36v-0.6c0-3.63-2.79-6.09-6.87-6.09-3.87,0-6.54,2.22-6.54,5.759,0,3.75,3.03,5.31,5.7,6.66,2.46,1.26,3.66,1.89,3.66,3.3a2.113,2.113,0,0,1-2.4,2.13,2.554,2.554,0,0,1-2.82-2.46v-0.6a0.347,0.347,0,0,0-.36-0.36H8.44a0.347,0.347,0,0,0-.36.36v0.81C8.08,26.87,10.78,29.24,14.89,29.24Zm11.52-.12a2.589,2.589,0,0,0,2.67-2.61,2.656,2.656,0,0,0-5.31,0A2.581,2.581,0,0,0,26.41,29.12Z"/>
  </g>
</svg>
