<svg xmlns="http://www.w3.org/2000/svg" enable-background="new 0 0 3000 3000" viewBox="0 0 3000 3000"><path fill="#f2faff" d="M2721.21,2505.85H357.34c0,0-409.21-409.21-114.73-764.88s-257.54-679.9,101.95-1089.11
		c359.49-409.21,1748.98-344.18,1538.26,568.95C1577.12,2545.5,3172.49,1220.84,2721.21,2505.85z"/><path fill="#f2faff" d="M2581.27,1585c-57.6-86.2-164.46-126.29-232.34-204.66c-102.64-120.44-153.19-357.78-339.38-365.09
			c-273.32,73.78-104.51,457.28-3.97,619.83c173.2,260.56,343.19,109.9,551.68,203.15C2711.91,1907.41,2627.92,1643.31,2581.27,1585
			z"/><path fill="#c8d9fb" d="M2632.66 2603.61c0 22.4-252.85 40.56-564.75 40.56-311.9 0-564.75-18.16-564.75-40.56 0-22.4 252.85-40.56 564.75-40.56C2379.81 2563.06 2632.66 2581.22 2632.66 2603.61zM1457.11 2603.61c0 22.4-148.67 40.56-332.07 40.56-183.4 0-332.07-18.16-332.07-40.56 0-22.4 148.67-40.56 332.07-40.56C1308.43 2563.06 1457.11 2581.22 1457.11 2603.61zM2202.23 1308.79c0 19.46-15.78 35.24-35.24 35.24-19.46 0-35.24-15.78-35.24-35.24 0-19.46 15.78-35.24 35.24-35.24C2186.45 1273.55 2202.23 1289.33 2202.23 1308.79z"/><circle cx="472.06" cy="1560.11" r="35.24" fill="#c8d9fb"/><polygon fill="#5ca88d" points="2557.15 2214.46 2573.53 2214.46 2570.95 2324.82 2557.15 2324.82"/><path fill="#7ac094" d="M2710.78,2157.69c6.17-5.36,174.53-158.66,154.69-351.04c-19.83-192.38-180.48-239.98-134.86-464.09
				c45.61-224.11,0-378.81-138.83-380.79c-138.83-1.98-202.29,132.88-150.73,372.86c51.56,239.98-169.35,333.84-158.66,509.7
				C2294.71,2047.05,2454.94,2379.81,2710.78,2157.69z"/><path fill="#f2faff" d="M2495.65,991.76c2.4,10.67,8.68,21.22,18.97,25.83c9.49,4.24,20.39,3.38,30.36,1.63
				c18.45-3.24,37.12-10.16,56.1-7.68c9.54,1.25,18.62,5.45,27.18,9.68c9.42,4.66,18.32,10.27,26.65,16.67
				c15.94,12.25,29.75,27.55,39.28,45.32c10.85,20.25,14.61,42.58,15.26,65.35c0.74,26.27-1.69,52.59,3.05,78.62
				c3.15,17.32,8.51,36.3,20.64,49.61c2.33,2.56,4.93,4.61,7.65,6.42c26.36-191.62-22.79-319.64-148.99-321.44
				c-38.1-0.54-70.41,9.38-96.32,28.8C2495.54,990.97,2495.55,991.35,2495.65,991.76z" opacity=".2"/><path fill="#202234" d="M2597.69,1764.69c-19.29-35.52-19.54-79.63-8.94-117.78c5.68-20.44,14.39-39.99,24.37-58.67
				c4.03-7.54,9.02-14.68,12.68-22.4c2.65-5.57,2.12-10.46-0.03-16.13c-3.72-9.83-9-19.2-13.16-28.88
				c-4.19-9.75-8.22-19.58-11.66-29.62c-7.16-20.91-10.04-42.06-11.72-64.01c-1.65-21.66-0.86-44.06,6.05-64.83
				c6.17-18.53,19.52-33.5,26.27-51.63c-11.03-6.74-20.62-15.45-28.56-25.69c-9.15-11.82-16.26-24.97-21.86-38.88
				c-0.05,30.7-0.06,61.39-0.13,92.08c-0.32,122.33-0.82,244.66-1.12,366.98c-0.27,109.01-0.24,218.01-0.24,327.02
				c2.26-7.84,4.69-15.63,7.42-23.33c24.54-69.1,65.47-130.44,105.13-191.6C2646.63,1818.66,2614.6,1795.84,2597.69,1764.69z" opacity=".15"/><path fill="#202234" d="M2618.14,2216.74c-19.47,0.22-39.15-3.06-56.62-11.95c-18.45-9.39-32.93-24.86-43.14-42.7
				c-6.29-11-10.02-21.9-12.15-34.37c-2.3-13.39-4.69-26.02-13.49-36.82c-15.34-18.82-41.53-21.43-62.51-30.94
				c-19.68-8.91-34.76-25.83-46.44-43.63c-11.72-17.87-19.99-37.95-25.67-58.49c-12.04-43.5-13.34-90-7.77-134.61
				c5.15-41.28,16.03-82.19,36.5-118.62c24.4-43.42,56.49-82.17,79.33-126.48c11.2-21.73,19.55-44.89,23.19-69.14
				c4.34-28.88,1.63-57.99-4.95-86.3c-7.27-31.26-18.83-61.26-30.72-91c-11.08-27.71-20.57-55.7-26.91-84.86
				c2.91,27.47,7.62,56.73,14.29,87.79c51.56,239.98-169.35,333.84-158.66,509.7c10.76,177.05,134.35,453.27,335.91,372.4
				C2618.25,2216.73,2618.2,2216.74,2618.14,2216.74z" opacity=".15"/><path fill="#b8debf" d="M2747.01,1764.06c-0.82-0.82-2.14-0.82-2.95,0l-175.88,175.88v-299.06l98.01-103.52
				c0.79-0.83,0.76-2.15-0.08-2.95c-0.84-0.8-2.15-0.75-2.95,0.08l-94.98,100.32v-269.09l71.21-72.28c0.81-0.82,0.8-2.14-0.02-2.95
				c-0.82-0.81-2.14-0.8-2.95,0.03l-68.24,69.26v-231.42c0-1.15-0.93-2.08-2.09-2.08c-1.16,0-2.09,0.93-2.09,2.08v322.72
				l-54.16-46.15c-0.88-0.74-2.2-0.65-2.94,0.24c-0.75,0.88-0.65,2.19,0.23,2.94l56.87,48.46v303.93l-107.32-107.32
				c-0.81-0.81-2.13-0.81-2.95,0c-0.81,0.82-0.81,2.14,0,2.95L2564,1766.4v178.58c0,0,0,0,0,0v280.17c0,1.15,0.93,2.09,2.09,2.09
				c1.15,0,2.09-0.93,2.09-2.09v-279.31l178.83-178.84C2747.82,1766.19,2747.82,1764.87,2747.01,1764.06z"/><polygon fill="#5ca88d" points="394.83 2268.14 401.53 2268.14 400.47 2313.23 394.83 2313.23"/><path fill="#7ac094" d="M457.6,2244.95c2.52-2.19,71.31-64.82,63.2-143.42c-8.1-78.6-73.74-98.05-55.1-189.61
				c18.64-91.56,0-154.77-56.72-155.58s-82.65,54.29-61.58,152.34c21.07,98.05-69.19,136.39-64.82,208.24
				C287.61,2199.74,353.07,2335.7,457.6,2244.95z"/><path fill="#f2faff" d="M369.7,1768.59c0.98,4.36,3.55,8.67,7.75,10.55c3.87,1.73,8.33,1.38,12.4,0.67
				c7.54-1.32,15.16-4.15,22.92-3.14c3.9,0.51,7.61,2.23,11.11,3.96c3.85,1.9,7.49,4.19,10.89,6.81c6.51,5,12.15,11.25,16.05,18.52
				c4.43,8.27,5.97,17.4,6.23,26.7c0.3,10.73-0.69,21.49,1.25,32.12c1.29,7.08,3.48,14.83,8.43,20.27c0.95,1.04,2.02,1.88,3.13,2.62
				c10.77-78.29-9.31-130.59-60.87-131.33c-15.57-0.22-28.77,3.83-39.35,11.77C369.66,1768.27,369.67,1768.42,369.7,1768.59z" opacity=".2"/><path fill="#202234" d="M411.39,2084.38c-7.88-14.51-7.98-32.53-3.65-48.12c2.32-8.35,5.88-16.34,9.96-23.97
				c1.65-3.08,3.68-6,5.18-9.15c1.08-2.28,0.87-4.27-0.01-6.59c-1.52-4.02-3.68-7.85-5.38-11.8c-1.71-3.98-3.36-8-4.76-12.1
				c-2.92-8.54-4.1-17.18-4.79-26.15c-0.68-8.85-0.35-18,2.47-26.49c2.52-7.57,7.98-13.69,10.73-21.09
				c-4.51-2.76-8.43-6.31-11.67-10.5c-3.74-4.83-6.64-10.2-8.93-15.88c-0.02,12.54-0.02,25.08-0.05,37.62
				c-0.13,49.98-0.33,99.96-0.46,149.94c-0.11,44.53-0.1,89.07-0.1,133.61c0.92-3.2,1.91-6.39,3.03-9.53
				c10.03-28.23,26.75-53.3,42.95-78.28C431.39,2106.43,418.31,2097.11,411.39,2084.38z" opacity=".15"/><path fill="#202234" d="M419.75,2269.08c-7.96,0.09-15.99-1.25-23.13-4.88c-7.54-3.83-13.45-10.16-17.62-17.45
				c-2.57-4.49-4.09-8.95-4.96-14.04c-0.94-5.47-1.92-10.63-5.51-15.04c-6.27-7.69-16.97-8.76-25.54-12.64
				c-8.04-3.64-14.2-10.55-18.97-17.83c-4.79-7.3-8.17-15.5-10.49-23.9c-4.92-17.77-5.45-36.77-3.18-55
				c2.11-16.87,6.55-33.58,14.91-48.46c9.97-17.74,23.08-33.57,32.41-51.67c4.58-8.88,7.99-18.34,9.47-28.24
				c1.77-11.8,0.67-23.69-2.02-35.26c-2.97-12.77-7.69-25.03-12.55-37.18c-4.53-11.32-8.4-22.76-10.99-34.67
				c1.19,11.22,3.11,23.18,5.84,35.87c21.07,98.05-69.19,136.39-64.82,208.24c4.39,72.34,54.89,185.19,137.24,152.15
				C419.8,2269.07,419.77,2269.08,419.75,2269.08z" opacity=".15"/><path fill="#b8debf" d="M472.4,2084.12c-0.33-0.33-0.87-0.33-1.21,0l-71.86,71.86V2033.8l40.04-42.29c0.32-0.34,0.31-0.88-0.03-1.2
				c-0.34-0.33-0.88-0.31-1.21,0.03l-38.81,40.99v-109.94l29.09-29.53c0.33-0.33,0.33-0.87-0.01-1.21
				c-0.34-0.33-0.88-0.33-1.21,0.01l-27.88,28.3v-94.55c0-0.47-0.38-0.85-0.85-0.85c-0.47,0-0.85,0.38-0.85,0.85v131.85
				l-22.13-18.86c-0.36-0.3-0.9-0.26-1.2,0.1c-0.31,0.36-0.26,0.9,0.09,1.2l23.24,19.8v124.17l-43.85-43.85
				c-0.33-0.33-0.87-0.33-1.21,0c-0.33,0.33-0.33,0.87,0,1.2l45.05,45.05v72.96c0,0,0,0,0,0v114.47c0,0.47,0.38,0.85,0.85,0.85
				c0.47,0,0.85-0.38,0.85-0.85V2158.4l73.06-73.07C472.73,2085,472.73,2084.46,472.4,2084.12z"/><polygon fill="#5ca88d" points="639.23 2223.34 649.11 2223.34 647.55 2289.95 639.23 2289.95"/><path fill="#7ac094" d="M731.96,2189.07c3.73-3.24,105.34-95.77,93.37-211.89c-11.97-116.12-108.94-144.85-81.4-280.12
				c27.53-135.27,0-228.64-83.8-229.84c-83.8-1.2-122.1,80.2-90.98,225.05c31.12,144.85-102.22,201.5-95.77,307.65
				C480.82,2122.29,577.53,2323.14,731.96,2189.07z"/><path fill="#f2faff" d="M602.1,1485.33c1.45,6.44,5.24,12.81,11.45,15.59c5.73,2.56,12.31,2.04,18.33,0.98
				c11.14-1.95,22.4-6.13,33.86-4.63c5.76,0.75,11.24,3.29,16.41,5.84c5.68,2.81,11.06,6.2,16.09,10.06
				c9.62,7.4,17.96,16.63,23.71,27.36c6.55,12.22,8.82,25.7,9.21,39.44c0.45,15.86-1.02,31.74,1.84,47.46
				c1.9,10.45,5.13,21.91,12.45,29.94c1.41,1.55,2.98,2.78,4.62,3.88c15.91-115.66-13.75-192.93-89.93-194.02
				c-22.99-0.33-42.5,5.66-58.14,17.39C602.04,1484.85,602.05,1485.08,602.1,1485.33z" opacity=".2"/><path fill="#202234" d="M663.69,1951.86c-11.64-21.44-11.8-48.06-5.39-71.09c3.43-12.34,8.68-24.14,14.71-35.41
				c2.43-4.55,5.44-8.86,7.66-13.52c1.6-3.36,1.28-6.31-0.01-9.74c-2.24-5.94-5.43-11.59-7.95-17.43
				c-2.53-5.88-4.96-11.82-7.04-17.88c-4.32-12.62-6.06-25.39-7.07-38.63c-1-13.07-0.52-26.6,3.65-39.13
				c3.72-11.19,11.78-20.22,15.85-31.17c-6.66-4.07-12.45-9.32-17.23-15.5c-5.52-7.13-9.81-15.07-13.19-23.47
				c-0.03,18.53-0.03,37.05-0.08,55.58c-0.19,73.83-0.49,147.67-0.68,221.5c-0.16,65.79-0.14,131.59-0.14,197.38
				c1.37-4.73,2.83-9.43,4.48-14.08c14.81-41.71,39.52-78.73,63.46-115.65C693.23,1984.44,673.91,1970.66,663.69,1951.86z" opacity=".15"/><path fill="#202234" d="M676.04,2224.71c-11.75,0.13-23.63-1.85-34.18-7.21c-11.14-5.67-19.88-15.01-26.04-25.77
				c-3.8-6.64-6.05-13.22-7.33-20.75c-1.38-8.08-2.83-15.71-8.14-22.22c-9.26-11.36-25.06-12.94-37.73-18.67
				c-11.88-5.38-20.98-15.59-28.03-26.34c-7.07-10.78-12.06-22.91-15.5-35.3c-7.27-26.26-8.05-54.32-4.69-81.25
				c3.11-24.92,9.68-49.61,22.03-71.6c14.73-26.2,34.09-49.6,47.88-76.34c6.76-13.12,11.8-27.1,14-41.73
				c2.62-17.43,0.98-35-2.99-52.09c-4.39-18.87-11.37-36.98-18.55-54.93c-6.69-16.72-12.42-33.62-16.24-51.22
				c1.75,16.58,4.6,34.24,8.62,52.99c31.12,144.85-102.22,201.5-95.77,307.65c6.49,106.87,81.09,273.59,202.75,224.78
				C676.1,2224.71,676.07,2224.71,676.04,2224.71z" opacity=".15"/><path fill="#b8debf" d="M753.82,1951.48c-0.49-0.49-1.29-0.49-1.78,0l-106.16,106.16v-180.51l59.16-62.48
				c0.48-0.5,0.46-1.3-0.05-1.78c-0.5-0.48-1.3-0.45-1.78,0.05l-57.33,60.55v-162.42l42.98-43.63c0.49-0.49,0.48-1.29-0.01-1.78
				c-0.5-0.49-1.29-0.48-1.78,0.01l-41.19,41.81v-139.68c0-0.7-0.56-1.26-1.26-1.26c-0.7,0-1.26,0.56-1.26,1.26v194.79l-32.69-27.86
				c-0.53-0.45-1.33-0.39-1.77,0.14c-0.45,0.53-0.39,1.32,0.14,1.78l34.33,29.25v183.45l-64.78-64.78c-0.49-0.49-1.29-0.49-1.78,0
				c-0.49,0.49-0.49,1.29,0,1.78l66.56,66.56v107.79v0v169.11c0,0.7,0.56,1.26,1.26,1.26c0.7,0,1.26-0.56,1.26-1.26V2061.2
				l107.94-107.94C754.31,1952.77,754.31,1951.97,753.82,1951.48z"/><path fill="#394ca4" d="M388.95,2350.89c0,0,39.99-290.32-39.64-261.67C269.68,2117.88,306.23,2234.23,388.95,2350.89z"/><path fill="#100959" d="M394.21,2348.08c0,0-162.84-286.38-275.19-187.9C6.68,2258.65,394.21,2348.08,394.21,2348.08z"/><path fill="#f2faff" d="M125.27,2163.39c3.26,8.94,8.59,16.53,18.24,18.86c12.05,2.92,25.18-0.62,37.3-1.31
				c13.82-0.78,27.07,1.27,39.6,7.29c12.1,5.81,22.47,14.61,32.69,23.16c10.26,8.57,20.71,17.9,32.71,23.97
				c11.38,5.75,24.88,8.21,37.39,10.17c0.01,0,0.02,0,0.04,0c-56.23-69.07-135.73-139.1-199.95-88.86
				C123.82,2158.93,124.47,2161.18,125.27,2163.39z" opacity=".5"/><path fill="#4094f2" d="M165.07,2505.85h1405.85l-20.16-70.27l-47.42-166.46c-33.6-117.5-150.33-191.04-270.9-170.5l-60.86,10.56
					c-4.61,0.77-9.03,1.16-13.44,1.16c-26.88,0-52.41-13.44-67.58-36.29c-104.45-156.67-340.6-137.27-418.16,34.37L662,2131.45
					c-18.29,40.65-66.04,58.82-106.72,40.61l-60.7-27.17c-35.52-15.93-75.07-4.03-96.96,24c-8.07,10.17-13.83,22.46-16.13,36.28
					l-9.02,52.61c-2.31,13.05-7.3,24.58-14.4,34.18c-1.35,1.73-2.69,3.45-4.03,4.99c-12.29,14.21-28.99,23.62-47.23,26.88
					c-4.6,0.96-9.6,1.34-14.4,1.34c-15.23,0-30.66-4.17-44.68-13.53c-31.61-21.1-73.98-15.84-100.86,11.03l-40.78,40.78
					C53.55,2416,90.76,2505.85,165.07,2505.85z"/><path fill="#f2faff" d="M110.04,2393.65c8.23-12.25,13.19-26.51,22.05-38.33c18.3-24.44,51.82-29.36,80.33-24.58
					c19.18,3.22,37.27,10.09,57.01,8.33c15.4-1.38,30.72-3.8,45.69-7.74c29.38-7.73,59.13-22.12,75.62-48.79
					c16.4-26.53,8.59-61.66,27.98-86.84c20.85-27.07,56.76-24.53,85.7-13.95c16.22,5.93,30.6,15.89,46.88,21.48
					c19.09,6.56,39.6,7.39,59.24,2.89c10.16-2.32,20.01-5.93,29.36-10.53c5.79-2.85,11.08-5.96,15.17-11.06
					c6.72-8.39,9.25-19.48,8.86-30.05c-0.23-6.43-1.66-12.87-4.11-18.78c-19.63,37.6-65.33,53.91-104.55,36.36l-60.7-27.17
					c-35.52-15.93-75.07-4.03-96.96,24c-8.07,10.17-13.83,22.46-16.13,36.28l-9.02,52.61c-2.31,13.05-7.3,24.58-14.4,34.18
					c-1.35,1.73-2.69,3.45-4.03,4.99c-12.29,14.21-28.99,23.62-47.23,26.88c-4.6,0.96-9.6,1.34-14.4,1.34
					c-15.23,0-30.66-4.17-44.68-13.53c-31.61-21.1-73.98-15.84-100.86,11.03l-40.78,40.78c-14.82,14.83-22.5,32.62-24.21,50.53
					C93.6,2411.4,103.11,2403.97,110.04,2393.65z" opacity=".2"/><path fill="#202234" d="M653.84,2431.57c36.7-72.18,93.35-130.87,147.94-189.63c6.78-7.29,13.53-14.6,20.23-21.97
					c6.75-7.43,13.98-14.7,18.97-23.5c1.86-3.29,5.75-10.15,3.31-14.05c-1.89-3.03-6.66-1.79-9.39-0.87
					c-6.67,2.24-12.36,7.16-17.03,12.27c-6.14,6.71-11.62,13.53-18.86,19.17c-12.49,9.72-27.16,15.31-42.27,19.53
					c-17.41,4.87-34.96,8.92-51.61,16.15c-15.72,6.82-30.63,15.44-43.51,26.84c-24.92,22.05-39.87,52.2-44.89,84.91
					c-2.49,16.23,0.42,33.8-6.71,49.09c-6.51,13.96-20.06,20.57-33.1,27.26c-13.99,7.18-28.53,13.92-43.56,18.64
					c-10.38,3.25-23.72,6.16-34.08,1.4c-19.26-8.86-8.16-37.01-2.87-51.2c3.5-9.41,7.75-18.7,10.27-28.44
					c2.7-10.42,0.95-25.6-10.44-30.08c-15.85-6.24-31.35,6.97-36.71,20.95c-5.22,13.61-5.3,29.05-1.52,42.99
					c2.81,10.4,9.79,26.84-1.8,34.51c-14.68,9.71-30.77-1.73-40.67-12.53c-11.07-12.08-18.89-25.66-26.64-40
					c-7.7-14.25-15.55-28.93-27.63-40.02c-11.77-10.8-29.25-18.67-45.43-14.79c-13.67,3.28-21.84,15.28-23.99,28.65
					c-1.17,7.33-0.63,14.93,1.16,22.11c1.08,4.32,3.08,8.15,5.47,11.88c1.28,2,2.61,3.96,3.16,6.31
					c3.45,14.83-12.45,25.88-20.43,35.79c-10.65,13.24-16.37,31.88-19.5,48.32c-0.91,4.76-1.45,9.66-1.78,14.58h354.68
					c3.9-6.24,7.69-12.55,11.29-18.95C636.05,2468.84,644.47,2450.01,653.84,2431.57z" opacity=".15"/><path fill="#f2faff" d="M289.14,2505.85h1281.77l-20.16-70.27c-63.36-56.83-150.91-84.67-239.99-69.31l-47.42,8.06l-25.54,4.22
					c-5.56,0.96-11.13,1.34-16.51,1.34c-11.9,0-23.61-2.11-34.56-6.33c-18.43-7.1-34.56-19.59-46.08-36.87
					c-16.12-24.38-35.13-45.12-55.87-62.21c-8.06-6.91-16.32-13.05-24.96-18.63c-46.66-30.91-100.22-46.27-153.99-46.85
					c-31.48-0.57-62.78,4.03-92.73,13.82c-72.76,23.04-137.27,75.46-173.18,155.13l-12.48,27.27
					c-22.08,48.96-79.48,70.65-128.25,48.77l-36.86-16.51l-35.52-15.94c-16.13-7.3-33.03-9.6-49.15-8.06
					c-41.86,4.03-78.72,35.14-86.4,80.25L289.14,2505.85z" opacity=".25"/><path fill="#100959" d="M462.96,2246.73c0,13.8,11.19,24.99,24.99,24.99c13.8,0,24.99-11.19,24.99-24.99
					c0-13.8-11.19-24.99-24.99-24.99C474.14,2221.74,462.96,2232.92,462.96,2246.73z"/><path fill="#202234" d="M468.75,2252.64c0,13.8,11.19,24.99,24.99,24.99c13.8,0,24.99-11.19,24.99-24.99
					c0-13.8-11.19-24.99-24.99-24.99C479.93,2227.65,468.75,2238.84,468.75,2252.64z" opacity=".15"/><path fill="#394ca4" d="M825.35,2437.6c0,13.8,11.19,24.99,24.99,24.99c13.8,0,24.99-11.19,24.99-24.99
					c0-13.8-11.19-24.99-24.99-24.99C836.53,2412.61,825.35,2423.8,825.35,2437.6z"/><path fill="#202234" d="M729.46,2119.95c0,26.6,21.56,48.16,48.16,48.16s48.16-21.56,48.16-48.16c0-26.6-21.56-48.16-48.16-48.16
					S729.46,2093.35,729.46,2119.95z" opacity=".15"/><path fill="#394ca4" d="M735.5,2102.83c0,26.6,21.56,48.16,48.16,48.16c26.6,0,48.16-21.56,48.16-48.16s-21.56-48.16-48.16-48.16
					C757.06,2054.67,735.5,2076.23,735.5,2102.83z"/><g><path fill="#100959" d="M463.87,2492.7c0,0,112.7-142.09,61.25-151.89C473.67,2331,456.52,2404.5,463.87,2492.7z"/><path fill="#f2faff" d="M467.49,2405.35c5.25-1.25,8.53-4.92,10.79-9.67c4.52-9.53,4.19-20.7,9.39-29.95
					c2.62-4.65,6.69-8.22,11.52-10.44c4.77-2.2,10.09-3.29,14.62-5.98c4.39-2.6,5.19-5.75,1.8-9.37
					c-26.91,0.37-42.81,26.54-49.54,65.66C466.54,2405.51,467.03,2405.46,467.49,2405.35z" opacity=".5"/><path fill="#394ca4" d="M463.87,2492.7c0,0-71.04-191.09-149.44-142.09C236.03,2399.6,463.87,2492.7,463.87,2492.7z"/><path fill="#f2faff" d="M317.63,2348.9c0.82,1.84,2.65,3.51,4.06,4.09c3.13,1.27,7.16,0.78,10.47,0.71
					c7.28-0.14,14.77-0.65,21.96,0.79c7.73,1.55,15.12,6.03,21.49,10.53c11.7,8.26,19.25,21.13,31.27,28.84
					c1.94,1.24,4.71,2.62,7.83,3.81C388.34,2359.66,353.87,2329.18,317.63,2348.9z" opacity=".2"/><path fill="#394ca4" d="M463.87,2492.7c0,0,262.14-31.85,195.99-73.5C593.72,2377.55,463.87,2492.7,463.87,2492.7z"/><path fill="#f2faff" d="M551.41,2434.53c7.72-1.42,13.4-5.96,19.97-9.88c6.22-3.7,12.95-6.7,20.06-8.2
					c10.06-2.12,20.17,0.45,30.27-0.93c3.53-0.48,7.67-1.69,9-5.19c-26.18-1.62-56.45,9.78-83.99,24.63
					C548.27,2434.9,549.84,2434.81,551.41,2434.53z" opacity=".2"/></g><g><path fill="#394ca4" d="M2633.46,2400c0,0-27.31-198.31,27.08-178.73C2714.93,2240.84,2689.97,2320.32,2633.46,2400z"/><path fill="#f2faff" d="M2633.66,2254.29c2.77-2.17,3.8-6.05,5.06-9.19c1.46-3.66,3.1-7.22,5.96-10.03
				c3.52-3.46,7.98-5.32,12.81-5.98c4.65-0.64,9.6-0.05,14.1-1.51c0.18-0.06,0.3-0.18,0.48-0.25c-3.4-2.35-7.11-4.47-11.53-6.06
				c-17.53-6.31-26.55,10.07-30.75,35.1C2631.2,2255.81,2632.55,2255.16,2633.66,2254.29z" opacity=".2"/><path fill="#202234" d="M2685.58,2255.69c-0.21,14.8-0.84,29.36-5.3,43.6c-1.87,5.97-4.16,11.98-6.7,17.7
				c-2,4.5-4.62,9.06-8.83,11.84c-9.08,6-19.76-0.14-26.21-7.08c-3.97-4.27-7.37-9.65-11.87-13.21c0.48,45.49,6.8,91.46,6.8,91.46
				c42.95-60.57,67.44-120.85,52.92-154.94C2685.64,2248.55,2685.62,2252.29,2685.58,2255.69z" opacity=".15"/><path fill="#100959" d="M2629.87,2398.09c0,0,111.23-195.61,187.97-128.35C2894.58,2337,2629.87,2398.09,2629.87,2398.09z"/><path fill="#f2faff" d="M2703.83,2300.48c3.09,0.44,6.3,0.67,9.42,0.61c0.19,0,0.39-0.01,0.58-0.01c-0.29-0.08,2.7-0.59,3.14-0.74
				c3.1-1.09,5.68-2.93,8.08-5.13c4.69-4.31,8.6-9.2,14.17-12.45c12.32-7.2,27.39-8.52,41.12-11.25c6.07-1.21,16.5-1.68,19.01-8.53
				c0.52-1.41,0.51-2.79,0.25-4.14c-31.51-11.48-66.49,11.18-96.5,41.48C2703.34,2300.37,2703.58,2300.45,2703.83,2300.48z" opacity=".2"/><path fill="#202234" d="M2815.09,2319.94c-10.31,6.86-21.77,10.66-34.15,10.86c-6.45,0.11-13.12-0.44-19.47,0.99
				c-6.38,1.44-10.99,4.88-15.26,9.67c-7.98,8.95-15.41,16.83-26.7,21.56c-11.77,4.93-24.7,5.76-37.32,5.4
				c-5.13-0.14-10.07-0.78-15.15-1.31c-3.88-0.41-9.01-1.16-12.62,0.83c-4.67,2.56-4.65,10.51-3.83,15.02
				c0.58,3.19,1.81,6.22,3.51,8.96c53.16-14.32,175.44-52,177.62-95.87C2828.12,2305.53,2824.25,2313.85,2815.09,2319.94z" opacity=".15"/><g><path fill="#4094f2" d="M2786.39,2505.85h-960.27l13.77-48l32.39-113.7c22.95-80.26,102.68-130.49,185.04-116.46l41.57,7.21
					c3.15,0.53,6.16,0.79,9.18,0.79c18.36,0,35.8-9.18,46.16-24.79c71.34-107.01,232.65-93.77,285.63,23.48l7.08,15.73
					c12.49,27.77,45.11,40.17,72.9,27.74l41.46-18.56c24.26-10.88,51.28-2.75,66.23,16.39c5.51,6.95,9.45,15.34,11.02,24.78
					l6.16,35.94c1.58,8.92,4.98,16.79,9.84,23.34c0.92,1.18,1.84,2.36,2.75,3.41c8.39,9.71,19.8,16.13,32.26,18.36
					c3.14,0.65,6.56,0.92,9.84,0.92c10.4,0,20.95-2.85,30.52-9.24c21.59-14.41,50.54-10.82,68.89,7.53l27.86,27.85
					C2862.56,2444.48,2837.14,2505.85,2786.39,2505.85z"/><path fill="#202234" d="M2720.09,2474.68c-5.93-18.25-28.38-35.54-48.22-31.15c-2.39,0.53-4.4-0.72-5.21-2.96
					c-4.52-12.43,1.02-32.33-12.57-39.97c-10.32-5.8-25.26-2.31-34.48,4.11c-23.96,16.67-23.39,47.71-27.85,73.62
					c-0.53,3.07-5.1,4.16-7.08,1.87c-5.13-5.93-8.57-13.66-12.52-20.38c-5.5-9.35-11.16-18.69-17.76-27.33
					c-4.14-5.42-10.57-14.59-17.93-15.8c-9.48-1.56-8.8,15.41-7.57,21.05c3.05,13.93,10.89,26.14,14.52,39.83
					c0.56,2.12-0.71,4.72-2.96,5.21c-5.95,1.3-11.17-0.95-16.03-4.29c-6.11-4.2-10.68-8.12-18.11-9.81
					c-10.42-2.37-27.32-2.32-33.26-13.26c-2.11-3.88-1.5-8.73-1.4-12.96c0.19-8.24,1-16.45,1.05-24.7
					c0.1-16.16-3.56-31.55-11.27-45.78c-12.4-22.91-32.28-42.68-52.95-58.27c-20.48-15.45-43.75-27.47-68.67-33.81
					c-47.46-12.09-101.82-1.04-132.04,39.88c-13.21,17.89-20.99,39.27-24.37,61.14c-3.94,25.56-0.86,51.87,2.22,77.35
					c1.92,15.95,4.57,31.84,8.05,47.55h522.93C2721.92,2496.77,2723.8,2486.08,2720.09,2474.68z" opacity=".15"/><path fill="#f2faff" d="M2306.23,2173.02c13.15,7.73,29.11,9.18,43.64,12.88c12.57,3.19,24.19,8.35,34.16,16.75
					c15.21,12.8,23.97,31.04,34.13,47.7c12.19,20,28.95,39.67,52.15,46.73c25.57,7.78,47.4-10.55,71.95-14.18
					c19.63-2.91,39.69-0.18,56.78,10.31c17.22,10.57,29.88,27.21,39.25,44.83c9.13,17.18,18.28,34.34,36.73,42.93
					c23.8,11.07,50.58,8.21,73.97-2.16c8.18-3.63,15.39-8.03,22.51-12.94c-14-3.16-29.02-1.04-41.58,7.34
					c-9.57,6.39-20.12,9.24-30.52,9.24c-3.28,0-6.69-0.26-9.84-0.92c-12.46-2.23-23.87-8.66-32.26-18.36
					c-0.92-1.05-1.84-2.23-2.75-3.41c-4.86-6.56-8.26-14.43-9.84-23.34l-6.16-35.94c-1.57-9.44-5.51-17.83-11.02-24.78
					c-14.95-19.15-41.97-27.28-66.23-16.39l-41.46,18.56c-27.79,12.44-60.41,0.03-72.9-27.74l-7.08-15.73
					c-30.67-67.88-97.65-100.82-162.47-95.82C2284.6,2152.16,2292.79,2165.1,2306.23,2173.02z" opacity=".2"/><path fill="#f2faff" d="M2701.64,2505.85h-875.52l13.77-48c43.28-38.82,103.08-57.83,163.93-47.34l32.39,5.51l17.44,2.89
					c3.8,0.66,7.6,0.92,11.28,0.92c8.13,0,16.13-1.44,23.61-4.33c12.59-4.85,23.61-13.38,31.47-25.18
					c11.02-16.65,24-30.82,38.17-42.49c5.51-4.72,11.14-8.92,17.05-12.72c31.87-21.11,68.46-31.6,105.18-32
					c21.5-0.39,42.88,2.76,63.34,9.44c49.7,15.74,93.77,51.54,118.29,105.96l8.53,18.63c15.08,33.44,54.29,48.26,87.6,33.31
					l25.18-11.28l24.26-10.89c11.02-4.99,22.56-6.55,33.57-5.51c28.59,2.75,53.77,24,59.02,54.82L2701.64,2505.85z" opacity=".25"/><path fill="#394ca4" d="M2582.92,2328.85c0,9.43-7.64,17.07-17.07,17.07c-9.43,0-17.07-7.64-17.07-17.07
					c0-9.43,7.64-17.07,17.07-17.07C2575.27,2311.78,2582.92,2319.43,2582.92,2328.85z"/><path fill="#100959" d="M2371.22,2385.98c0,9.43-7.64,17.07-17.07,17.07s-17.07-7.64-17.07-17.07c0-9.43,7.64-17.07,17.07-17.07
					S2371.22,2376.55,2371.22,2385.98z"/><path fill="#202234" d="M2338.94,2220.18c0,18.17-14.73,32.89-32.9,32.89c-18.17,0-32.9-14.73-32.9-32.89
					c0-18.17,14.73-32.9,32.9-32.9C2324.22,2187.29,2338.94,2202.02,2338.94,2220.18z" opacity=".15"/><path fill="#100959" d="M2336.68,2212.38c0,18.17-14.73,32.89-32.9,32.89c-18.17,0-32.9-14.73-32.9-32.89
					c0-18.17,14.73-32.9,32.9-32.9C2321.95,2179.48,2336.68,2194.21,2336.68,2212.38z"/><g><path fill="#100959" d="M2582.29,2496.86c0,0-76.98-97.06-41.84-103.75C2575.59,2386.42,2587.31,2436.62,2582.29,2496.86z"/><path fill="#f2faff" d="M2536.67,2406.35c3.5-1.18,6.75-2.23,10.46-2.56c7.36-0.66,15.81,0.84,21.9,5.22
					c2.39,1.72,3.96,3.84,5.5,6.14c-6.92-16.2-18.03-25.09-34.07-22.04c-7.38,1.41-9.77,6.82-9.01,14.46
					C2533.22,2407.58,2535.31,2406.81,2536.67,2406.35z" opacity=".2"/><path fill="#202234" d="M2566.04,2465.17c-3.2-0.7-6.31-2.12-9.23-3.88c12.75,19.51,25.49,35.58,25.49,35.58
					c1.06-12.67,1.35-24.88,0.86-36.22C2578.79,2465.66,2572.28,2466.53,2566.04,2465.17z" opacity=".15"/><path fill="#394ca4" d="M2582.29,2496.86c0,0,48.53-130.53,102.08-97.06C2737.92,2433.27,2582.29,2496.86,2582.29,2496.86z"/><path fill="#f2faff" d="M2620.24,2434.57c4.01-3.56,6.42-8.45,10.63-11.89c4.53-3.69,9.79-5.94,15.15-8.12
					c5.12-2.08,11.08-3.91,14.25-8.78c1.9-2.91,2.76-7.6,1.23-11c-18.82,2.92-36.1,22.17-49.69,43.24
					C2614.89,2437.57,2617.87,2436.67,2620.24,2434.57z" opacity=".2"/><path fill="#202234" d="M2647.53,2454.78c-6.86,1.06-16.32,1.21-22.1,5.44c-2.91,2.13-4.79,5.37-7.79,7.47
					c-2.9,2.03-6.33,3.15-9.74,3.96c-5.19,1.23-10.33,1.56-15.02,0.74c-6.72,14.11-10.59,24.48-10.59,24.48s52.44-21.45,85.96-45.98
					C2661.42,2452.75,2654.25,2453.74,2647.53,2454.78z" opacity=".15"/><path fill="#394ca4" d="M2582.29,2496.86c0,0-179.06-21.75-133.87-50.2C2493.6,2418.21,2582.29,2496.86,2582.29,2496.86z"/><path fill="#f2faff" d="M2461.84,2456.71c8.56,0.68,16.79-2.6,25.21-3.46c11.62-1.18,21.33,2.19,32.22,5.5
					c4.37,1.33,9,2.46,13.62,2.7c-27.48-16.01-60.6-28.64-83.33-15.4C2449.35,2451.19,2455.87,2456.24,2461.84,2456.71z" opacity=".2"/><path fill="#202234" d="M2530.81,2486.75c-5.43-0.34-10.89-0.69-16.23-1.76c-5.57-1.12-10.98-2.89-16.54-4.09
					c-3.45-0.74-6.94-1.05-10.44-1.11c41.13,10.56,94.69,17.08,94.69,17.08s-8.33-7.34-21.06-16.69c-0.45,0.81-1.03,1.59-1.77,2.29
					c-3.24,3.11-8.46,3.67-12.7,4.16C2541.46,2487.23,2536.11,2487.08,2530.81,2486.75z" opacity=".15"/></g></g></g><g><path fill="#383b4b" d="M2063.12 1082.69c-9.07 0-16.41 7.35-16.41 16.41v285.41c0 9.06 7.35 16.41 16.41 16.41s16.41-7.35 16.41-16.41V1099.1C2079.54 1090.04 2072.19 1082.69 2063.12 1082.69zM899.46 878.59c-9.06 0-16.41 7.35-16.41 16.41v69.32c0 9.07 7.35 16.41 16.41 16.41 9.06 0 16.41-7.35 16.41-16.41V895C915.88 885.94 908.53 878.59 899.46 878.59zM911.59 1037.86c-15.76 0-28.55 12.78-28.55 28.54v120.57c0 15.77 12.78 28.54 28.55 28.54 15.77 0 28.55-12.78 28.55-28.54V1066.4C940.14 1050.64 927.36 1037.86 911.59 1037.86z"/><path fill="#383b4b" d="M911.59,1211.87c-15.76,0-28.55,12.78-28.55,28.55v120.57c0,15.76,12.78,28.54,28.55,28.54
				c15.77,0,28.55-12.78,28.55-28.54v-120.57C940.14,1224.65,927.36,1211.87,911.59,1211.87z"/><path fill="#394ca4" d="M2070.04,728.3v1781.37H893.78V728.3c0-98.86,80.25-179.11,179.11-179.11H1891
			C1989.86,549.19,2070.04,629.44,2070.04,728.3z"/><path fill="#f2faff" d="M911.05,802.39c22.6-11.74,34.32-34.96,42.94-57.84c10.14-26.89,17.16-55,29.98-80.84
			c6.23-12.55,13.96-24.5,23.85-34.49c10.41-10.52,23.45-18.44,36.76-24.74c31.34-14.85,66.49-19.51,100.86-20.01
			c69.95-1.02,138.62,14.79,208.05,20.6c54.3,4.55,108.85,6.51,163.34,5.57c61.66-1.06,123.46-5.76,184.19-16.75
			c51.01-9.23,102.01-22.76,149.18-44.64h-777.34c-98.9,0-179.08,80.17-179.08,179.08v78.87
			C899.42,806.89,905.19,805.43,911.05,802.39z" opacity=".2"/><path fill="#202234" d="M2070.06,2223.43v286.25h-13.31c1.09-9.75,1.82-19.41,2.37-29.16c2.73-49.85-0.46-99.98,0.55-149.82
			C2060.4,2295.24,2062.22,2258.52,2070.06,2223.43z" opacity=".35"/><radialGradient id="a" cx="1057.166" cy="1325.328" r="2933.429" gradientUnits="userSpaceOnUse"><stop offset="0" stop-color="#c8d9fb"/><stop offset=".036" stop-color="#c0d5fa"/><stop offset=".26" stop-color="#92bef7"/><stop offset=".475" stop-color="#6facf5"/><stop offset=".675" stop-color="#559ff3"/><stop offset=".856" stop-color="#4597f2"/><stop offset="1" stop-color="#4094f2"/></radialGradient><path fill="url(#a)" d="M2004.44,733.48v1776.2H959.41V733.48c0-64.98,52.68-117.65,117.74-117.65h809.54
			C1951.77,615.83,2004.44,668.51,2004.44,733.48z"/><path fill="#f2faff" d="M2004.44,2193.54v145.45c-57.69,56.69-115.19,113.64-172.52,170.69H1688.3L2004.44,2193.54z" opacity=".2"/></g><g><path fill="#4094f2" d="M2733.83 2009.71h-34.42c-2.67 0-4.83-2.16-4.83-4.83s2.16-4.83 4.83-4.83h34.42c2.67 0 4.83 2.16 4.83 4.83S2736.49 2009.71 2733.83 2009.71zM2667.86 2009.71h-12.16c-2.67 0-4.83-2.16-4.83-4.83s2.16-4.83 4.83-4.83h12.16c2.67 0 4.83 2.16 4.83 4.83S2670.53 2009.71 2667.86 2009.71z"/></g><g><path fill="#4094f2" d="M2335.73 1504.69h-34.42c-2.67 0-4.83-2.16-4.83-4.83 0-2.67 2.16-4.83 4.83-4.83h34.42c2.67 0 4.83 2.16 4.83 4.83C2340.56 1502.53 2338.4 1504.69 2335.73 1504.69zM2269.76 1504.69h-12.16c-2.67 0-4.83-2.16-4.83-4.83 0-2.67 2.16-4.83 4.83-4.83h12.16c2.67 0 4.83 2.16 4.83 4.83C2274.59 1502.53 2272.43 1504.69 2269.76 1504.69z"/></g><g><path fill="#c8d9fb" d="M2255.73 1704.66h24.3c1.88 0 3.41 1.52 3.41 3.41 0 1.88-1.52 3.41-3.41 3.41h-24.3c-1.88 0-3.41-1.52-3.41-3.41C2252.32 1706.19 2253.84 1704.66 2255.73 1704.66zM2302.31 1704.66h85.26c1.88 0 3.41 1.52 3.41 3.41 0 1.88-1.52 3.41-3.41 3.41h-85.26c-1.88 0-3.41-1.52-3.41-3.41C2298.9 1706.19 2300.42 1704.66 2302.31 1704.66z"/></g><g><path fill="#4094f2" d="M639.09 1345.82h25.46c3.59 0 6.49 2.9 6.49 6.49s-2.9 6.49-6.49 6.49h-25.46c-3.59 0-6.49-2.9-6.49-6.49S635.5 1345.82 639.09 1345.82zM706.99 1345.82h95.29c3.59 0 6.49 2.9 6.49 6.49s-2.9 6.49-6.49 6.49h-95.29c-3.59 0-6.49-2.9-6.49-6.49S703.4 1345.82 706.99 1345.82z"/></g><g><path fill="#eab213" d="M703.05,1152.66c-10.29,34.4-46.52,53.95-80.92,43.66c-34.4-10.29-53.95-46.51-43.66-80.92
			c10.29-34.4,46.51-53.95,80.92-43.66C693.79,1082.03,713.34,1118.26,703.05,1152.66z"/><path fill="#eddaab" d="M697.55,1151.02c-9.38,31.37-42.41,49.19-73.78,39.81c-31.37-9.38-49.19-42.41-39.81-73.78
			s42.41-49.19,73.78-39.81C689.11,1086.62,706.93,1119.65,697.55,1151.02z"/><path fill="#f2faff" d="M610.28,1096.79c4.42-4.17,8.16-8.55,13.75-11.27c5.49-2.67,11.43-3.81,17.48-4.27
			c8.91-0.69,17.75,0.25,26.63,0.34c-3.29-1.72-6.71-3.25-10.4-4.35c-24.71-7.39-50.4,2.15-64.8,21.85
			C598.24,1101.92,605.08,1101.7,610.28,1096.79z" opacity=".49"/><path fill="#202234" d="M685.94,1106.27c-3.8,2.8-2.58,10.97-2.25,14.93c0.45,5.29,1.6,10.54,1.64,15.85
			c0.11,13.48-2.63,29.79-14.5,37.97c-3.76,2.6-8.18,3.7-12.17,5.85c-3.44,1.85-6.58,4.21-10.14,5.84
			c-7.32,3.35-15.26,3.43-22.72,0.49c-7.31-2.88-18.66-11.92-28.51-12.95c6.97,7.55,15.94,13.42,26.49,16.58
			c31.37,9.38,64.4-8.44,73.78-39.81c4.74-15.84,2.52-32.1-4.86-45.53C690.36,1104.74,688,1104.75,685.94,1106.27z" opacity=".15"/><path fill="#eab213" d="M654.24,1159.58c-3.95,2.17-8.92,2.83-14.92,1.98l-2.53,8.47l-9.15-2.74l2.44-8.16
				c-3.74-1.4-7.15-3.12-10.25-5.18c-3.1-2.06-5.54-4.19-7.32-6.38l8.29-9.65c1.92,2.29,4.31,4.39,7.17,6.3
				c2.86,1.91,5.82,3.32,8.87,4.23c5.8,1.73,9.13,1.15,9.99-1.75c0.46-1.52-0.03-2.9-1.46-4.13c-1.43-1.23-3.86-2.8-7.28-4.71
				c-3.76-2.07-6.84-4-9.24-5.8s-4.24-4.08-5.51-6.84c-1.28-2.76-1.36-6-0.25-9.71c1.31-4.37,4.01-7.65,8.09-9.84
				c4.09-2.18,9.21-2.74,15.37-1.68l2.51-8.39l9.15,2.74l-2.46,8.24c2.82,1.12,5.45,2.46,7.89,4.02c2.44,1.56,4.52,3.26,6.24,5.11
				l-8.01,9.82c-4.26-4.26-8.78-7.11-13.56-8.54c-3-0.9-5.32-1.11-6.96-0.63c-1.64,0.48-2.67,1.43-3.1,2.85
				c-0.43,1.42,0.07,2.74,1.48,3.93c1.41,1.2,3.81,2.72,7.19,4.56c3.81,2.08,6.9,4.01,9.27,5.81c2.37,1.79,4.21,4.06,5.53,6.8
				c1.31,2.75,1.41,5.98,0.3,9.69C660.78,1154.21,658.18,1157.41,654.24,1159.58z"/></g><path fill="#c8d9fb" d="M2817 968.38c1.28 20.23-14.07 37.66-34.3 38.95-20.23 1.28-37.66-14.07-38.95-34.3-1.28-20.23 14.07-37.66 34.3-38.94C2798.28 932.79 2815.72 948.15 2817 968.38zM820.49 1841.13c1.45 22.79-15.86 42.45-38.65 43.89-22.79 1.45-42.44-15.86-43.89-38.65-1.45-22.79 15.86-42.45 38.65-43.89C799.39 1801.03 819.04 1818.34 820.49 1841.13zM2205.95 1620.98c.64 10.02-6.97 18.65-16.99 19.29-10.02.64-18.65-6.97-19.29-16.99-.64-10.02 6.97-18.65 16.99-19.29C2196.68 1603.36 2205.31 1610.96 2205.95 1620.98z" opacity=".25"/><path fill="#c8d9fb" d="M2823.3,1480.35c0.69,10.86-7.55,20.21-18.41,20.9c-10.86,0.69-20.21-7.55-20.9-18.41
		c-0.69-10.86,7.55-20.21,18.41-20.9C2813.25,1461.25,2822.61,1469.49,2823.3,1480.35z"/><path fill="#5681f1" d="M2072.62,577.17c-48.8-57.5-123.67-90.33-199-87.61c-12.87,0.47-12.93,20.52,0,20.06
		c70.53-2.54,139.18,27.96,184.82,81.74C2066.8,601.21,2080.93,586.96,2072.62,577.17L2072.62,577.17z"/><path fill="#f2faff" d="M1842.82 615.84h-87.56c-265.27 265.27-530.54 530.54-795.82 795.82v85.04C1252.88 1202.06 1547.3 908.4 1842.82 615.84zM2004.42 914.2V733.52c0-64.07-51.23-116.07-114.95-117.54 6.55 9.58 7.56 22.65-3.11 33.21-310.13 307-619.09 615.17-926.92 924.46v386.91C1307.48 1611.48 1655.87 1262.76 2004.42 914.2z" opacity=".2"/><g><path fill="#5681f1" d="M959.93,366.08l-112.55-9.19c0,0-82.54,5.42-82.54,78.75c0,52.03,65.45,40.23,82.54,153.8
			c0,0,155.63-55.42,259.49,0C1152.67,540.74,1074.84,382.65,959.93,366.08z"/><path fill="#7359af" d="M959.93,366.08l-46.3-3.78c25.38,27.97,43.74,62.07,48.84,99.74c2.63,19.46,3.01,40.24-4.63,58.66
			c-7.32,17.69-20.37,30.72-35.59,41.9c-6.61,4.86-14.48,8.31-21.68,12.57c54.66-11.53,140.76-20.71,206.32,14.27
			C1152.67,540.74,1074.84,382.65,959.93,366.08z" opacity=".35"/><path fill="#202234" d="M1112.91,612.71h-48.48c0,0-52.52,2.42-74.33,40.4c0,0,183.41,577.69,176.14,941.28
			c-7.27,363.58,145.43,239.96,290.87,392.67s-109.08,356.31,36.36,450.84c145.43,94.53,363.58-596.28,109.08-1192.55
			C1348.03,649.06,1112.91,612.71,1112.91,612.71z" opacity=".15"/><linearGradient id="b" x1="1005.399" x2="2600.317" y1="516.498" y2="2557.408" gradientUnits="userSpaceOnUse"><stop offset="0" stop-color="#c8d9fb"/><stop offset=".448" stop-color="#97b3f7"/><stop offset="1" stop-color="#5681f1"/></linearGradient><path fill="url(#b)" d="M847.39,356.88c162.18,27.21,228.27,150.13,247.9,257.55c24.45,134.97,0,779.19,79.54,1037.08
				c33.74,109.15,141.16,149.77,238.95,190.75c133.6,55.43,248.94,110.53,135.66,337.08c-196.61,392.52,116.38,423.17,116.38,423.17
				l730.29-42.7c0,0-159.42-349.82,0-503.38c159.41-153.22-196.26-251.7-325.03-386.66c-128.43-134.97-12.39-625.63-0.34-987.85
				c12.39-361.88-318.83-325.03-318.83-325.03H847.39z"/><path fill="#202234" d="M2071.08,1669.76c-128.43-134.97-12.39-625.63-0.34-987.85c12.39-361.88-318.84-325.03-318.84-325.03
				h-256.24c44.87,16.85,88.67,36.77,132.96,54.94c74.07,30.39,151.67,53.91,221.09,94.56c57.21,33.5,108.87,87.62,114.73,156.69
				c2.61,30.75-4.48,60.87-21.73,86.49c-14.02,20.82-32.8,37.54-50.81,54.77c-17.92,17.15-35.8,35.73-43.82,59.77
				c-9.77,29.27-3.44,61.26,7.15,89.41c21.71,57.7,66.09,103.77,85.95,162.39c44.88,132.52-64.5,253.49-58.41,384.72
				c3.63,78.25,45.04,145.93,83.62,211.57c18.99,32.32,37.58,65.09,51,100.19c6.61,17.29,12.23,34.93,13.68,53.47
				c1.63,20.93-0.57,41.92-1.95,62.79c-1.49,22.68-2.2,45.7,2.84,68.03c4,17.69,12.66,34.12,23.33,48.69
				c20,27.3,47.24,48.12,71.16,71.74c20.52,20.26,36.2,43.39,50.97,68.03c16.44,27.43,31.18,55.95,43.35,85.53
				c19.96,48.53,35.2,102.86,7.58,151.31c-22.16,38.88-61.82,63.84-102.27,80.37c-48.55,19.84-101.13,29.25-153.14,34.13
				c-48.89,4.58-98.38,4.98-147.32,0.87c-51.79-4.35-102.58-16.19-148.41-41.48c-48.09-26.53-87.09-66.48-114.86-113.68
				c-22.25-37.83-37.77-78.86-48.48-121.41c-116.25,315.42,151.98,341.74,151.98,341.74l730.29-42.7c0,0-159.42-349.82,0-503.38
				C2555.53,1903.2,2199.86,1804.73,2071.08,1669.76z" opacity=".15"/><g opacity=".5"><path fill="#c8d9fb" d="M1155.79 450.13h755.95c12.67 0 22.93 10.27 22.93 22.93 0 12.67-10.26 22.94-22.93 22.94h-755.95c-12.67 0-22.93-10.27-22.93-22.94C1132.85 460.41 1143.12 450.13 1155.79 450.13zM1634.44 1108.65h264.48c11.83 0 21.43 9.59 21.43 21.43s-9.6 21.43-21.43 21.43h-265.09c-12.18 0-21.98-10.16-21.4-22.47C1612.98 1117.51 1622.9 1108.65 1634.44 1108.65zM1280.56 1108.65h264.48c11.83 0 21.43 9.59 21.43 21.43s-9.6 21.43-21.43 21.43h-265.09c-12.18 0-21.98-10.16-21.4-22.47C1259.09 1117.51 1269.01 1108.65 1280.56 1108.65zM1209.67 1248.54h731.12c12.26 0 22.18 9.93 22.18 22.18s-9.92 22.18-22.18 22.18h-731.12c-12.25 0-22.18-9.93-22.18-22.18S1197.42 1248.54 1209.67 1248.54zM1209.67 928.58h731.12c12.26 0 22.18 9.93 22.18 22.18 0 12.25-9.92 22.18-22.18 22.18h-731.12c-12.25 0-22.18-9.93-22.18-22.18C1187.49 938.51 1197.42 928.58 1209.67 928.58zM1229.8 1428.54h711.6c11.92 0 21.58 9.66 21.58 21.58 0 11.92-9.66 21.59-21.58 21.59h-711.6c-11.93 0-21.58-9.67-21.58-21.59C1208.22 1438.2 1217.87 1428.54 1229.8 1428.54zM1418.41 1738.56h651.84c10.92 0 19.78 8.85 19.78 19.78 0 10.92-8.85 19.77-19.78 19.77h-651.84c-10.92 0-19.77-8.85-19.77-19.77C1398.64 1747.41 1407.5 1738.56 1418.41 1738.56zM1720.08 1592.36h247.11c10.88 0 20.23 8.52 20.43 19.41.2 11.09-8.73 20.14-19.78 20.14h-247.76c-10.92 0-19.77-8.85-19.77-19.78C1700.3 1601.21 1709.15 1592.36 1720.08 1592.36zM1316.66 1592.36h287.86c10.92 0 19.78 8.85 19.78 19.77 0 10.92-8.85 19.78-19.78 19.78h-288.5c-11.06 0-19.98-9.05-19.78-20.14C1296.43 1600.88 1305.77 1592.36 1316.66 1592.36zM1621.59 1863.02h638.32c10.7 0 19.37 8.67 19.37 19.36 0 10.7-8.67 19.37-19.37 19.37h-638.32c-10.7 0-19.36-8.67-19.36-19.37C1602.23 1871.69 1610.89 1863.02 1621.59 1863.02zM1626.44 2221.3h638.32c10.7 0 19.37 8.66 19.37 19.36 0 10.7-8.67 19.37-19.37 19.37h-638.32c-10.7 0-19.36-8.67-19.36-19.37C1607.07 2229.97 1615.74 2221.3 1626.44 2221.3zM1643.4 2095.26h638.32c10.7 0 19.36 8.66 19.36 19.36 0 10.7-8.66 19.37-19.36 19.37H1643.4c-10.7 0-19.36-8.67-19.36-19.37C1624.04 2103.92 1632.71 2095.26 1643.4 2095.26zM1693.5 1979.72h638.32c10.7 0 19.36 8.66 19.36 19.36 0 10.7-8.67 19.37-19.36 19.37H1693.5c-10.7 0-19.36-8.67-19.36-19.37C1674.13 1988.39 1682.8 1979.72 1693.5 1979.72zM1617.49 2393.16h638.32c10.7 0 19.37 8.67 19.37 19.36 0 10.7-8.67 19.37-19.37 19.37h-638.32c-10.7 0-19.36-8.67-19.36-19.37C1598.13 2401.83 1606.8 2393.16 1617.49 2393.16z"/></g><path fill="#5681f1" d="M2653.82,2344.9h-779.31c0,0,30.68,239.31-208.64,257.72h883.63
				C2549.51,2602.62,2678.37,2522.84,2653.82,2344.9z"/><path fill="#202234" d="M2653.82,2344.9h-257.45c27.84,9.37,55.26,19.89,82.12,31.53c28.9,12.53,89.87,34.1,71.39,76.54
				c-7.42,17.04-25.18,25.96-42.18,30.78c-18.11,5.14-37.12,6.55-55.84,7.53c-21.72,1.14-43.58,1.21-65.12,4.5
				c-22.31,3.4-49.77,10.1-63.66,29.58c-7.34,10.29-12.78,21.96-22.73,30.15c-10.01,8.24-22.56,12.59-35.18,14.88
				c-27.38,4.95-55.87,4.72-83.34,0.85c-29.18-4.11-57.57-12.17-86.45-17.81c-15.09-2.95-30.54-5.7-45.97-5.38
				c-15.69,0.32-31.03,3.53-46.24,7.14c-15.3,3.63-30.31,7.56-45.29,12.34c-14.33,4.57-28.77,9-43.65,11.42
				c-22.65,3.69-46.58,3.19-67.14-7.99c-13.68-7.44-23.88-18.58-31.13-31.58c-31.32,32.6-78.68,57.76-150.08,63.25h883.63
				C2549.51,2602.62,2678.37,2522.84,2653.82,2344.9z" opacity=".15"/><path fill="#c8d9fb" d="M1272.98 796.84h-29.71V673.23h29.71V796.84zM1396.94 796.84h-29.63l-43.81-76.92v76.92h-29.8V673.23h29.8l43.72 76.91v-76.91h29.71V796.84zM1463.75 763.22l24.62-89.99h33.28l-41.6 123.61h-32.6l-41.26-123.61h33.03L1463.75 763.22zM1634.23 737.58c0 12.05-2.24 22.72-6.71 32.01-4.47 9.28-10.82 16.42-19.06 21.43-8.24 5.01-17.62 7.52-28.14 7.52-10.53 0-19.87-2.42-28.02-7.26-8.15-4.84-14.51-11.76-19.06-20.76-4.56-9-6.95-19.33-7.18-30.99v-6.96c0-12.11 2.22-22.8 6.67-32.05 4.44-9.25 10.81-16.4 19.1-21.44 8.29-5.04 17.73-7.56 28.31-7.56 10.47 0 19.81 2.49 28.02 7.47 8.2 4.98 14.59 12.07 19.14 21.27 4.56 9.2 6.86 19.74 6.92 31.63V737.58zM1603.92 732.4c0-12.28-2.05-21.61-6.16-27.98-4.1-6.36-9.98-9.55-17.62-9.55-14.94 0-22.84 11.2-23.69 33.62l-.09 9.08c0 12.11 2.01 21.42 6.03 27.93 4.02 6.51 9.99 9.76 17.91 9.76 7.53 0 13.33-3.2 17.4-9.6 4.07-6.39 6.14-15.59 6.2-27.59V732.4zM1681.35 796.84h-29.71V673.23h29.71V796.84zM1802.07 754.99c-.4 8.6-2.72 16.2-6.96 22.79-4.25 6.59-10.2 11.7-17.87 15.33-7.67 3.62-16.43 5.43-26.28 5.43-16.25 0-29.04-5.29-38.37-15.88-9.34-10.58-14.01-25.53-14.01-44.82v-6.11c0-12.11 2.11-22.71 6.33-31.79 4.22-9.08 10.29-16.1 18.21-21.05 7.92-4.95 17.09-7.43 27.51-7.43 15 0 27.05 3.95 36.17 11.84 9.11 7.89 14.29 18.78 15.54 32.64h-29.71c-.23-7.53-2.12-12.93-5.69-16.22-3.57-3.28-9-4.92-16.3-4.92-7.41 0-12.85 2.77-16.3 8.32-3.45 5.55-5.26 14.41-5.43 26.57v8.74c0 13.19 1.66 22.61 4.97 28.27 3.31 5.66 9.01 8.49 17.11 8.49 6.85 0 12.08-1.61 15.71-4.84 3.62-3.23 5.55-8.35 5.77-15.37H1802.07zM1892.83 744.37h-46.86v29.54h55.35v22.92h-85.15V673.23h85.32v23.01h-55.52v26.06h46.86V744.37z"/></g><path fill="#202234" d="M2103.22,777.41c-8.45-39.65-47.44-64.94-87.1-56.49c-39.65,8.45-64.95,47.44-56.49,87.1
		c8.45,39.65,47.44,64.95,87.09,56.5C2086.37,856.06,2111.67,817.06,2103.22,777.41z" opacity=".15"/><g><path fill="#eab213" d="M2139.07,767.65c8.45,39.65-16.84,78.65-56.49,87.09c-39.65,8.45-78.65-16.84-87.1-56.49
			c-8.45-39.65,16.84-78.65,56.5-87.1C2091.63,702.71,2130.62,728,2139.07,767.65z"/><path fill="#eddaab" d="M2132.74,769c7.71,36.15-15.36,71.71-51.51,79.41c-36.15,7.71-71.71-15.36-79.41-51.51
			c-7.71-36.15,15.36-71.71,51.51-79.41C2089.48,709.79,2125.04,732.85,2132.74,769z"/><path fill="#f2faff" d="M2016.9,762.58c2.11-6.53,3.44-12.89,7.51-18.61c3.99-5.62,9.26-9.97,15.01-13.71
			c8.45-5.5,17.72-9.38,26.56-14.09c-4.19,0.08-8.41,0.42-12.66,1.33c-28.48,6.07-48.76,29.44-52.35,56.76
			C2007.76,774.18,2014.42,770.25,2016.9,762.58z" opacity=".49"/><path fill="#202234" d="M2096.98,730.97c-2.25,4.83,3.39,12.27,5.87,16c3.3,4.99,7.29,9.58,10.21,14.81
			c7.41,13.29,13.53,30.93,6.21,45.47c-2.32,4.61-6.1,8.1-8.88,12.38c-2.41,3.7-4.23,7.73-6.88,11.28
			c-5.43,7.29-13.26,11.67-22.24,12.8c-8.8,1.11-24.95-1.7-35.26,2.62c10.99,3.7,23.06,4.66,35.22,2.07
			c36.15-7.71,59.22-43.26,51.51-79.41c-3.89-18.26-14.9-33.16-29.49-42.46C2100.54,727.05,2098.21,728.34,2096.98,730.97z" opacity=".05"/><path fill="#eab213" d="M2094.47,800.96c-2.73,4.29-7.3,7.64-13.71,10.04l2.08,9.76l-10.55,2.25l-2-9.41
				c-4.46,0.64-8.78,0.78-12.96,0.42c-4.18-0.36-7.75-1.15-10.71-2.36l2.98-14.05c3.14,1.23,6.65,2.02,10.52,2.35
				c3.87,0.34,7.57,0.13,11.08-0.61c6.68-1.42,9.66-3.81,8.95-7.15c-0.37-1.76-1.6-2.86-3.69-3.3c-2.09-0.44-5.34-0.69-9.76-0.72
				c-4.84-0.01-8.94-0.26-12.29-0.74c-3.35-0.48-6.41-1.74-9.17-3.79c-2.76-2.04-4.6-5.21-5.51-9.48
				c-1.07-5.04-0.18-9.75,2.69-14.13c2.87-4.38,7.64-7.71,14.32-9.99l-2.06-9.67l10.55-2.25l2.02,9.49c3.4-0.42,6.74-0.52,10-0.29
				c3.27,0.22,6.25,0.78,8.95,1.68l-2.61,14.07c-6.53-1.92-12.56-2.29-18.07-1.11c-3.46,0.74-5.87,1.79-7.23,3.15
				c-1.36,1.36-1.87,2.87-1.52,4.5c0.35,1.64,1.55,2.67,3.6,3.09c2.05,0.42,5.25,0.63,9.6,0.62c4.9,0,9.01,0.24,12.33,0.73
				c3.32,0.49,6.37,1.74,9.16,3.74c2.79,2.01,4.64,5.16,5.55,9.43C2098.05,792.09,2097.2,796.67,2094.47,800.96z"/></g><g><path fill="#202234" d="M2206.62,1813.81c-7.46-36.13-33.2-72.52-74.94-70.57c-41.78,1.22-84.65,60.46-71.3,120.8
			c13.46,60.44,66.93,76.38,101.73,51.01C2197.91,1889.48,2213.11,1850.25,2206.62,1813.81z" opacity=".15"/><path fill="#eab213" d="M2257.94,1832.76c6.49,36.44-8.7,75.67-44.51,101.24c-34.8,25.36-88.27,9.43-101.73-51.01
				c-13.35-60.34,29.52-119.58,71.3-120.8C2224.75,1760.24,2250.49,1796.63,2257.94,1832.76z"/><path fill="#eddaab" d="M2251.48,1834.04c6.02,34.14-8.45,70.84-41.6,93.25c-32.36,22.24-80.05,6.65-91.81-47.46
				c-11.72-54,25.75-107.37,63.87-109.53C2220.07,1767.58,2244.7,1800.17,2251.48,1834.04z"/><path fill="#eab213" d="M2213.25,1870.35c-2.39,5.2-6.61,9.75-12.81,13.79c1.18,3.68,2.45,7.32,3.78,10.93
					c-3.44,1.66-6.86,3.36-10.28,5.11c-1.34-3.59-2.6-7.22-3.79-10.88c-4.45,1.69-8.82,2.79-13.15,3.23
					c-4.32,0.43-8.1,0.19-11.31-0.76c0.27-6.31,0.72-12.59,1.36-18.82c3.31,1.11,6.98,1.55,10.97,1.37
					c3.99-0.18,7.75-1.02,11.28-2.45c6.71-2.72,9.57-5.88,8.66-9.74c-0.47-2.03-1.77-3.2-3.92-3.51c-2.15-0.31-5.48-0.27-10.01,0.16
					c-4.96,0.51-9.16,0.67-12.6,0.42c-3.44-0.24-6.61-1.53-9.44-3.94c-2.83-2.41-4.7-6.46-5.41-12.11
					c-0.84-6.66,0.54-13.07,4.02-18.89c3.49-5.83,8.9-10.1,16.04-12.75c-0.12-4.09-0.16-8.2-0.1-12.32c3.7-0.71,7.39-1.37,11.07-2
					c-0.07,3.92-0.05,7.83,0.05,11.73c3.5-0.34,6.86-0.28,10.1,0.16c3.24,0.44,6.14,1.27,8.71,2.43c-1.63,5.35-3.1,10.76-4.42,16.22
					c-6.45-2.22-12.49-2.74-18.22-1.25c-3.58,0.93-6.15,2.3-7.67,4.04c-1.52,1.75-2.16,3.68-1.92,5.76
					c0.24,2.07,1.41,3.32,3.48,3.74c2.07,0.43,5.32,0.51,9.76,0.29c5-0.24,9.17-0.14,12.54,0.29c3.36,0.42,6.43,1.74,9.23,3.87
					c2.81,2.14,4.67,5.54,5.73,10.23C2216.2,1860.03,2215.64,1865.15,2213.25,1870.35z"/></g><g><path fill="#202234" d="M1652.14,2240.47c2.89-26.63-6.78-57.51-36.07-65.46c-29.15-8.46-71.96,22.92-76.18,67.59
			c-4.16,44.76,29.24,67.68,58.94,57.91C1629.27,2290.82,1648.51,2267.09,1652.14,2240.47z" opacity=".15"/><path fill="#eab213" d="M1660.52,2267.28c-3.63,26.62-22.87,50.35-53.31,60.04c-29.7,9.77-63.1-13.15-58.94-57.91
				c4.22-44.67,47.03-76.05,76.18-67.59C1653.74,2209.77,1663.41,2240.65,1660.52,2267.28z"/><path fill="#eddaab" d="M1655.77,2266.72c-3.45,24.93-21.62,47.07-49.52,55.17c-27.32,8.16-56.79-13.24-52.87-53.25
				c3.93-39.92,41.71-68.46,68.53-61.46C1648.87,2213.8,1658.63,2241.81,1655.77,2266.72z"/><path fill="#eab213" d="M1621.27,2283.3c-2.81,3.06-6.74,5.27-11.92,6.67c0,2.8,0.06,5.6,0.18,8.39
					c-2.74,0.38-5.49,0.79-8.24,1.24c-0.12-2.78-0.19-5.57-0.2-8.36c-3.45,0.18-6.72-0.04-9.81-0.7c-3.09-0.66-5.64-1.67-7.65-3.04
					c1.59-4.3,3.3-8.54,5.13-12.7c2.04,1.51,4.48,2.63,7.28,3.39c2.8,0.76,5.58,1.02,8.34,0.82c5.24-0.39,7.92-1.94,8.15-4.8
					c0.13-1.51-0.51-2.61-1.93-3.3c-1.42-0.69-3.73-1.41-6.95-2.12c-3.54-0.75-6.47-1.58-8.8-2.51c-2.32-0.93-4.22-2.53-5.64-4.83
					c-1.42-2.29-1.81-5.51-1.04-9.58c0.9-4.79,3.28-8.91,6.99-12.15c3.71-3.25,8.4-5,13.93-5.24c0.83-2.85,1.72-5.7,2.67-8.53
					c2.71,0.34,5.41,0.7,8.09,1.09c-0.92,2.7-1.78,5.4-2.58,8.12c2.5,0.54,4.81,1.33,6.94,2.36c2.14,1.03,3.96,2.24,5.48,3.62
					c-2.32,3.33-4.54,6.74-6.67,10.23c-3.96-2.97-8.02-4.67-12.31-4.92c-2.69-0.16-4.76,0.22-6.2,1.09
					c-1.44,0.87-2.31,2.06-2.61,3.55c-0.3,1.49,0.24,2.6,1.57,3.36c1.33,0.76,3.57,1.54,6.68,2.37c3.51,0.94,6.37,1.95,8.6,2.99
					c2.23,1.04,4.05,2.63,5.52,4.73c1.47,2.1,1.99,4.87,1.68,8.34C1625.61,2276.82,1624.07,2280.23,1621.27,2283.3z"/></g><path fill="#202234" d="M1253.5,1028c0,0,53.33,16.16,46.86,50.09c-6.46,33.93-37.16,48.48-12.93,69.48
		c24.24,21.01,201.99,151.9,172.9,311.87c-9.13,50.2-56.56,38.78-67.87,85.64c-11.31,46.86,185.83,664.14-105.04,925.92
		c0,0-93.72-1160.23-96.96-1179.62C1187.25,1272,1253.5,1028,1253.5,1028z" opacity=".15"/><g><path fill="#5681f1" d="M1267.51,1165.04c31.91,5.66,113.7,122.86,128.94,205.16c0,0,53.34,9.68,49.53,37.12
			c-3.81,27.43,5.71,111.35-80.01,67.78C1280.25,1431.53,1187.43,1150.85,1267.51,1165.04z"/><path fill="#d7a28e" d="M908.9,2481.3c0,0,45.44-35.03,41.72-42.93c-3.72-7.89-18.38-34.2-24.04-33.95
						c-5.66,0.25-40.45,60.99-39.69,71.48C887.66,2486.4,896.47,2490.21,908.9,2481.3z"/><path fill="#fff" d="M904.22,2461.76c8.86-2.87,17.56-6.23,26.19-9.73c4.18-1.7,8.32-3.42,12.6-4.85
						c1.65-0.55,3.31-1.1,4.96-1.66c-9.45,12.95-39.07,35.79-39.07,35.79c-12.43,8.9-21.24,5.1-22-5.39c-0.14-1.9,0.94-5,2.81-8.81
						C894.5,2465.2,899.3,2463.34,904.22,2461.76z" opacity=".2"/><path fill="#f2faff" d="M928.64,2452.83c3.07,1.6,6.29,2.87,9.4,4.4c-15.33,19.93-29.13,24.74-29.13,24.74
						c-13,9.31-22.21,5.33-23.01-5.64c-0.47-6.41,10.04-33.32,21.82-48.48C910.79,2435.67,922,2449.36,928.64,2452.83z"/><path fill="#0f1019" d="M965.19,2571.99l3.94,4.33c0,0-2.76,6.89-6.78,7.85c-4.02,0.96-27.83-7.77-63.96-37.84
					c-36.13-30.07-48.2-49.59-42.24-55.53C862.12,2484.86,937.26,2574.85,965.19,2571.99z"/><path fill="#202234" d="M856.16,2490.81c36.17,54.61,119.1,100.2,113.18,82.82c-1.31-3.82-4.78-8.96-9.3-14.81
					c-16.09-20.77-45.54-50.45-38.47-61.23c9.04-13.81,3.7-21.07,1.76-21.83c-0.5-0.19-1.93-0.61-3.83-1.29
					c-5.56-1.99-15.17-6.2-17.43-13.44c-3.05-9.72-3.61-11.01-8.85-10.33C877.87,2452.7,872.31,2460.24,856.16,2490.81z"/><path fill="#0f1019" d="M919.5,2474.46c-1.71,3.54-3.09,8.02-3.74,12.06c-1.62,10.13-9.98,9.95-8.19,31.74
					c1.78,21.78,35.77,38.09,46.31,41.91c6.21,2.24,6.76,0.48,6.16-1.36c-16.09-20.77-45.54-50.45-38.47-61.23
					c9.04-13.81,3.7-21.07,1.76-21.83C922.83,2475.56,921.4,2475.14,919.5,2474.46z"/><path fill="#d7a28e" d="M1290.41,2544.35c0,0,15.71-55.18,8.02-59.32c-7.68-4.14-35.11-16.57-39.52-13.01
						c-4.4,3.56,3.74,73.09,10.59,81.07S1285.71,2558.9,1290.41,2544.35z"/><path fill="#fff" d="M1275.03,2531.41c5.42-7.57,10.42-15.45,15.27-23.39c2.35-3.85,4.65-7.7,7.25-11.39
						c1-1.43,2.01-2.85,3-4.28c0.1,16.03-10.13,52-10.13,52c-4.7,14.55-14.05,16.73-20.9,8.75c-1.24-1.44-2.22-4.58-2.98-8.75
						C1269.25,2539.97,1272.02,2535.62,1275.03,2531.41z" opacity=".2"/><path fill="#f2faff" d="M1289.35,2509.72c3.42-0.53,6.77-1.43,10.17-2.05c-0.48,25.14-8.71,37.21-8.71,37.21
						c-4.92,15.22-14.69,17.49-21.85,9.15c-4.19-4.88-11.74-32.76-11.28-51.96C1264.8,2506.54,1281.95,2510.88,1289.35,2509.72z"/><path fill="#0f1019" d="M1389.59,2583.8l5.75,1.14c0,0,1.87,7.18-0.79,10.35c-2.66,3.17-27,10.3-73.92,7.6
					c-46.93-2.7-68.24-11.21-66.98-19.53C1254.91,2575.03,1368.84,2602.71,1389.59,2583.8z"/><path fill="#202234" d="M1253.65,2583.35c61.55,22.4,155.34,9.75,140.24-0.71c-3.33-2.29-9.17-4.36-16.28-6.38
					c-25.29-7.13-66.61-13.49-67.34-26.36c-0.94-16.48-9.55-19.14-11.57-18.6c-0.51,0.14-1.91,0.66-3.85,1.24
					c-5.65,1.7-15.88,4.03-22-0.45c-8.23-6-9.45-6.7-13.25-3.04C1248.45,2539.81,1248.47,2549.18,1253.65,2583.35z"/><path fill="#0f1019" d="M1294.86,2532.55c0.73,3.87,2.29,8.28,4.16,11.92c4.72,9.1-2.11,13.93,12.29,30.39
					c14.38,16.45,51.4,9.36,62.15,6.16c6.33-1.89,5.72-3.63,4.15-4.75c-25.29-7.13-66.61-13.49-67.34-26.36
					c-0.94-16.48-9.55-19.14-11.57-18.6C1298.2,2531.46,1296.8,2531.97,1294.86,2532.55z"/><path fill="#202234" d="M1089.11,1638.01h249.8c0,0,58.98,145.72,55.51,440.62c-3.47,294.9-91.94,414.59-91.94,414.59h-48.57
				l-39.9-463.17L1089.11,1638.01z"/><path fill="#202234" d="M1269.19,2489.35c-6.79-13.85-7.17-30.55-6.98-45.66c0.23-17.51,1.56-35.12,3.7-52.49
				c2.77-22.53,6.84-44.88,9.35-67.44c2.46-22.1,2.1-44.13-0.29-66.22c-2.36-21.88-6.41-43.53-9.92-65.24
				c-3.39-20.95-6.96-42.39-6.7-63.68c0.48-39.74,14.97-77.09,25.13-114.99c5.12-19.08,9.09-38.52,9.63-58.33
				c0.63-23.49-0.4-47.11-0.99-70.6c-0.59-23.17,11.99-50.64-1.44-69.53c-32.06-45.08,69.55-76.41,68.74-90.76
				c-0.76-13.5-71.9,19.95-67.87,6.88c1.67-5.41,4.27-10.5,8.48-14.35c5.35-4.89,11.88-6.89,18.87-8.27
				c7.8-1.53,16.17-2.18,23.47-5.54c4.8-2.21,9.36-5.42,13.63-8.88c-9.54-37.47-17.1-56.23-17.1-56.23h-249.8l124.9,392.04
				l39.9,463.17h17.46C1270.59,2491.97,1269.86,2490.69,1269.19,2489.35z" opacity=".35"/><path fill="#f2faff" d="M1371.19,2148.01c-1.81,16.31-2.68,32.7-3.99,49.05c-1.27,15.88-3.09,31.64-6.16,47.27
				c-3.01,15.32-6.68,30.6-7.87,46.2c-1.26,16.52,1.13,36.22,10,51.28c16.34-64.5,29.93-151.18,31.24-263.19
				c0.9-76.46-2.43-142.73-7.81-199.18c-4.37-0.94-8.98,0.84-13.72,6.73c-5.4,6.71-6.34,16.1-6.3,24.39
				c0.05,10.85,1.95,21.62,4.17,32.21c2.18,10.39,4.84,20.66,7.14,31.02c2.14,9.66,3.09,18.91,3.44,28.79
				c1.16,31.9,2.45,64.03-1.89,95.76C1377.19,2115.01,1373.04,2131.27,1371.19,2148.01z" opacity=".2"/><path fill="#383b4b" d="M1224.41,1638.01c0,0,72.86,371.23-27.76,513.47c-100.61,142.25-242.86,298.37-242.86,298.37l-41.63-34.7
				l138.78-360.82c0,0-121.43-270.61-38.16-416.33H1224.41z"/><path fill="#202234" d="M924.86,2425.73c5.06-14.29,10.46-28.47,14.93-42.96c5.19-16.82,9.3-33.72,15.9-50.1
				c12.29-30.48,28.97-59.05,45.96-87.11c31.5-52.01,69.13-107.51,64.26-171.24c-2.34-30.53-15.28-59.22-21.82-88.91
				c-3.16-14.33-5.22-29.22-3.63-43.89c1.16-10.74,3.57-22.69,11.38-30.72c13.39-13.77,36.21-13.35,53.94-14.33
				c10.14-0.56,20.42-1.06,30.29-3.64c4.56-1.19,8.97-2.82,12.97-5.34c4.74-2.99,8.48-7.4,12.23-11.49
				c8.18-8.91,15.57-18.71,24.88-26.51c10.33-8.66,22.97-14.88,36.18-17.61c8.33-1.72,16.99-2.27,25.37-0.99
				c-6.2-105.89-23.28-192.88-23.28-192.88h-211.63c-83.27,145.72,38.16,416.33,38.16,416.33l-138.78,360.82L924.86,2425.73z" opacity=".15"/><path fill="#f2faff" d="M1199.08,2115.84c-12.37,7.77-20.21,22.44-27.16,34.81c-9.33,16.58-19.07,32.89-28.85,49.21
				c-20.48,34.2-41.11,68.33-62.23,102.15c38.31-46.74,79.74-99.51,115.82-150.53c7.89-11.16,14.6-23.86,20.48-37.54
				C1211.35,2111.91,1205.01,2112.12,1199.08,2115.84z" opacity=".2"/><path fill="#f2faff" d="M1212.26,1147.91c-60.45-1.96-205.41,23.17-225.52,169.5c-20.11,146.33,0.18,342.69,0.18,342.69
			s70.54,101.21,199.82,65.85c75-20.52,134.14-76.82,158.95-74.93c13.99,1.06,24.4-179.13,20.26-222.64
			C1352.94,1291.29,1329.73,1151.71,1212.26,1147.91z"/><g><path fill="#202234" d="M1119.25,1061.16c0.01-5.69,4.88-11.71,9.71-16.84c4.87-5.12,10.16-10.15,13.17-16.19
				c2.49-4.99,3.3-10.08,4.95-15.15c1.64-5.07,4.54-10.73,8.79-14.28c2.34-1.95,4.81-3.01,7.1-3.59c3.24-0.82,6.25-0.77,8.88,0.19
				c2.77,1.01,5.51,3.05,9,1.59c2.88-1.21,5.31-4.51,7.72-7.3c4.54-5.25,9.7-9.25,14.56-10.33c4.86-1.08,9.46,1.04,12.22,6.24
				c1.18,2.23,1.99,4.94,3.33,7.14c3.96,6.46,11.39,7.37,18.08,9.01c6.69,1.64,14.61,5.75,17.65,14.86
				c2.34,6.97,0.58,14.84,4.27,21.39c2.62,4.61,7.33,7.25,11.05,11.27c5.07,5.51,8.14,14.21,5.72,19.75
				c-2.81,6.39-11.8,7.47-14.2,14.24c-1.87,5.24,1.06,12.11,2.29,18.37c1.77,9.14-0.87,17.57-7.7,22.16
				c0.61-0.67,1.22-1.35,1.83-2.02c-11.28,9.1-27.19,14.43-45.38,15.87c-9,0.73-18.79,0.47-28.25-2.11
				c-13.63-3.71-24.73-11.58-36.73-16.16c-9.16-3.5-20.25-5.88-23.89-12.67c-4.46-8.63,5.8-19.06,3.79-28.3
				C1125.89,1071.81,1119.25,1067.67,1119.25,1061.16z"/><path fill="#d7a28e" d="M1168.9,1111.13l-5.58,66.94c0,0,21.31,30.52,41.69,7.14l-1.34-44.91L1168.9,1111.13z"/><path fill="#33133f" d="M1187.22,1186.38c4.34-7.67,5.85-19.26-1.19-25.9c-2.85-2.69-6.52-4.34-9.27-7.14
				c-3.42-3.49-4.11-8.85-3.7-13.51c0.67-7.62,3.77-15.08,3.11-22.6l27.5,23.07l1.34,44.91c-7.96,9.13-16.05,10.03-22.97,7.74
				C1184.03,1191.06,1185.8,1188.89,1187.22,1186.38z" opacity=".15"/><path fill="#d7a28e" d="M1256.24,1040.9c0,0,5.61,107.37-37.01,111.48c-42.62,4.11-62.11-40.49-62.11-40.49s-7.78,5-9.78-2.83
				s-11.61-21.52-2.34-26.92c9.27-5.4,12.41,3.16,12.41,3.16l-5.66-24.24C1151.74,1061.06,1254.51,1005.73,1256.24,1040.9z"/><path fill="#33133f" d="M1153.69,1087.56c0,0-5.67-2.94-7.84,1.49c-2.17,4.42,3.06,21.08,9.66,18.94c0,0-8.6-3.56-7.77-13.8
				C1148.57,1083.94,1152.28,1090.84,1153.69,1087.56z" opacity=".05"/><path fill="#202234" d="M1148.07,1067.59c2.79,4.59,34.99-25.01,52.88-15.68c17.9,9.33,39.43,5.87,45.83-3.11
				c6.4-8.98,38.89-25.35,9.82-34.1C1227.53,1005.96,1119.69,1021.03,1148.07,1067.59z"/><path fill="#33133f" d="M1180.46 1102.55c-.5 2.98 2.75 6.02 7.26 6.78 4.51.76 8.58-1.04 9.08-4.02.5-2.98-2.75-6.02-7.26-6.78C1185.03 1097.77 1180.97 1099.57 1180.46 1102.55zM1231.57 1102.83c-.5 2.98 2.75 6.02 7.26 6.78 4.51.76 8.58-1.04 9.08-4.02.5-2.98-2.75-6.02-7.26-6.78C1236.14 1098.05 1232.07 1099.85 1231.57 1102.83z" opacity=".05"/><path fill="#202234" d="M1229.41 1074.79c.43 0 .86-.23 1.09-.63.21-.36 5.08-8.41 17.05-3.11.63.28 1.38 0 1.66-.64.28-.64 0-1.38-.64-1.66-14.11-6.25-20.2 4.06-20.26 4.16-.34.6-.13 1.38.47 1.72C1228.98 1074.74 1229.19 1074.79 1229.41 1074.79zM1204.94 1075.01c.16 0 .32-.03.47-.09.64-.26.96-.99.7-1.63-.05-.11-4.63-11.13-21.21-7.57-.68.14-1.12.82-.97 1.5.15.68.82 1.12 1.5.97 14.42-3.09 18.19 5.66 18.34 6.04C1203.97 1074.72 1204.44 1075.01 1204.94 1075.01zM1219.3 1106.87c.43 0 .86-.06 1.29-.18 2.67-.78 3.81-3.79 3.85-3.92.13-.38.09-.79-.13-1.12-4.51-6.92-3.32-16.33-3.31-16.42.09-.69-.39-1.32-1.08-1.42-.67-.11-1.33.39-1.42 1.08-.06.41-1.27 9.9 3.32 17.54-.36.66-1.04 1.58-1.95 1.84-.86.24-1.89-.1-3.08-1.01-.55-.42-1.34-.32-1.77.24-.42.55-.32 1.34.24 1.77C1216.66 1106.34 1218.01 1106.87 1219.3 1106.87z"/><path fill="#202234" d="M1155.39,1057.07c0,0-1.43,43.1,25.96,67.63c0,0,2.86-15.72,34.53-11.19
					c31.67,4.52,26.91,14.29,26.91,14.29l10.24-14.53l10.72-1.67c0,0-15.48,37.39-41.67,42.86c-26.19,5.48-64.65-9.64-64.71-43.28
					c0,0,1.84-22.21-4.11-35.07C1147.3,1063.26,1144.44,1058.02,1155.39,1057.07z"/><path fill="#fcfaf7" d="M1227.42,1119.55c0,0-14.38,6.52-30.5-0.98C1193.26,1125.27,1212.36,1142.7,1227.42,1119.55z"/><path fill="#202234" d="M1233.23 1085.25c0 3.93 2.18 7.11 4.87 7.11 2.69 0 4.87-3.18 4.87-7.11 0-3.93-2.18-7.11-4.87-7.11C1235.41 1078.14 1233.23 1081.32 1233.23 1085.25zM1189.43 1085.25c0 3.93 2.18 7.11 4.87 7.11 2.69 0 4.87-3.18 4.87-7.11 0-3.93-2.18-7.11-4.87-7.11C1191.6 1078.14 1189.43 1081.32 1189.43 1085.25z"/></g><path fill="#5681f1" d="M1161.17 1209.99l10.49-15.69 13.34.24c0 0-21.43-32.94-19.53-45l-12.36 9.36C1153.11 1158.89 1147.55 1164.27 1161.17 1209.99zM1194.05 1192.4l9.26.56 11.69 14.2c0 0 11.91-30.48-10.95-51.43l.96 29.48L1194.05 1192.4z"/><g><path fill="#e05778" d="M1178.82,1194.55c4.52-1.56,9.03-3.16,13.54-4.74c2.27,1.28,4.54,2.56,6.81,3.85
				c-0.67,3.58-1.35,7.16-2.02,10.74c44.9,109.03,53.77,202.95,85.56,311.19c-7.76,39.48-13.07,79.02-23.71,117.92
				c-20.21-35.6-35.71-71.44-48.25-110.44c8.06-104.38-7.68-213.24-26.01-315.77c-2.58-2.04-5.13-4.11-7.71-6.15
				C1177.59,1198.95,1178.21,1196.76,1178.82,1194.55z"/></g><g><path fill="#d7a28e" d="M1299.73,1471.3c-1.16,0.08-2.21,0.04-3.03-0.06c-0.17-0.02-0.32-0.04-0.45-0.07
					c-3.5-0.63-6.96-1.43-10.13-2.28c-8.54-2.27-15.1-4.82-15.1-4.82s-50.53,9.61-57.13,8.35c-6.16-3.8-5.17-32.35-5.17-32.35
					c4.18-4.72,55.82-8.07,65.62-10.77c9.81-2.7,24.11-28.62,29.55-21.41c-1.03,6.6-7.75,19.83-7.75,19.83s51.43-10.16,53.7,1.48
					c1.01,5.17-25.72,6.11-35.61,8.5c-0.08,0.02-0.16,0.04-0.24,0.06c0.03,0.01,4.01,5.26,2.66,9.29c-0.65,1.97-1.83,2.75-1.83,2.75
					s1.47,2.34,1.3,4.31c-0.17,1.98-1.5,4.89-2.44,5.04c0,0.04,1.42,2.04,0.4,4.32C1313.05,1465.74,1302.54,1471.09,1299.73,1471.3z
					"/><path fill="#fff" d="M1336.39,1439.7c-0.07,1.17,0.09,2.34-0.02,3.51c-0.18,2.05-0.93,3.74-2.26,5.28
					c-1.01,1.17-2.29,2.25-2.88,3.71c-0.73,1.8-0.26,4.14-0.12,6.02c0.16,2.16,0.26,4.35-0.24,6.47c-0.45,1.94-1.07,3.9-1.87,5.72
					c-0.76,1.73-1.74,3.46-3.09,4.8c-1.55,1.52-3.54,2.59-5.25,3.92c-0.07,0.11-0.12,0.23-0.2,0.34c3.44-0.25,16.3-6.8,17.53-9.59
					c1.24-2.79-0.48-5.24-0.49-5.29c1.15-0.19,2.78-3.74,2.99-6.17c0.21-2.41-1.59-5.28-1.59-5.28s1.44-0.95,2.24-3.36
					c1.65-4.92-3.22-11.35-3.25-11.36c-0.47-0.06-0.92-0.06-1.35-0.01C1336.47,1438.84,1336.41,1439.26,1336.39,1439.7z" opacity=".2"/></g><path fill="#5681f1" d="M1106.2,1186.11c-10.46-52.3-251.45,137.16-203.83,310.51c31.69,115.36,357.07-27.37,357.07-27.37
			l-1.21-42.42l-232.03,5.02C1026.19,1431.84,1127.15,1290.88,1106.2,1186.11z"/><g><path fill="#383b4b" d="M1343.41,1311.55l59.48-3.36c6.97-0.39,12.1,5.44,11.5,13l-11.98,149.62c-0.57,7.04-6.46,13.49-13.2,14.42
					l-22.36,3.08c-0.99,0.13-1.97,0.31-2.9,0.16c-0.19-0.03-0.39-0.03-0.61,0l-4.9,0.67c-0.21,0.03-0.42,0.09-0.62,0.17
					c-0.98,0.41-1.96,0.51-2.96,0.65l-23.08,3.18c-7.15,0.99-12.62-4.11-12.17-11.4l9.48-155.18
					C1329.56,1318.7,1336,1311.96,1343.41,1311.55z"/><path fill="#0f1019" d="M1343.39,1316.81l58.81-3.46c4.59-0.27,7.97,3.56,7.58,8.53l-11.79,149.15c-0.37,4.64-4.25,8.88-8.69,9.48
					l-56.9,7.71c-4.7,0.64-8.28-2.72-7.98-7.51l9.59-154.07C1334.31,1321.51,1338.53,1317.09,1343.39,1316.81z" opacity=".1"/><path fill="#f2faff" d="M1399.68,1344.16c-10.96,14.09-22.61,28.21-34.71,42.59c-12.07,14.35-24.61,28.98-37.37,44.12l6.5-104.47
					c0.32-5.15,4.53-9.56,9.39-9.84l58.78-3.44c4.58-0.27,7.97,3.56,7.57,8.53l-0.81,10.23
					C1405.98,1335.99,1402.86,1340.08,1399.68,1344.16z" opacity=".2"/><path fill="#383b4b" d="M1413.08 1332.67c.63-.04 1.1.48 1.04 1.17l-.42 5.25c-.05.69-.61 1.28-1.24 1.32-.63.04-1.1-.47-1.04-1.16l.42-5.26C1411.89 1333.3 1412.45 1332.71 1413.08 1332.67zM1411.27 1344.8c1.1-.08 1.9.82 1.81 2.01l-.73 9.08c-.1 1.19-1.06 2.22-2.15 2.3-1.09.09-1.91-.8-1.81-1.99l.72-9.1C1409.21 1345.91 1410.17 1344.88 1411.27 1344.8z"/><path fill="#383b4b" d="M1410.22,1357.91c1.09-0.09,1.9,0.8,1.81,1.98l-0.73,9.03c-0.09,1.18-1.05,2.21-2.14,2.3
					c-1.09,0.09-1.9-0.79-1.81-1.97l0.72-9.04C1408.17,1359.03,1409.13,1358,1410.22,1357.91z"/><path fill="#202234" d="M1397.18 1320.69c3.13.05 5.45 2.77 5.21 6.07l-1.74 24.03c-.24 3.26-2.93 5.99-6.04 6.11-3.14.12-5.53-2.46-5.3-5.77l1.7-24.45C1391.25 1323.31 1394.02 1320.63 1397.18 1320.69zM1327.98 1349.14c.81-.06 1.42.58 1.37 1.43l-1.63 26.42c-.05.83-.74 1.56-1.55 1.63-.8.07-1.42-.55-1.37-1.39l1.61-26.47C1326.47 1349.92 1327.17 1349.19 1327.98 1349.14z"/><g><path fill="#d7a28e" d="M1325.5,1422.36c5.09-5.45,35.17,8.63,35.17,8.63s-44.27-30.01-38.2-35.64
					c6.07-5.63,45.16,19.52,45.16,19.52s-47.44-34.41-44.98-42.99c2.46-8.58,53.06,30.18,53.06,30.18s-37.8-40.56-32.15-46.48
					c5.65-5.92,43.68,35.17,53.35,41.93c6.27,4.38,13.17,2.33,10.8-5.33c-2.37-7.66,4.69-21.93,10.63-21.22
					c5.94,0.71,0.77,26.71,7.55,33.59c6.78,6.88,12.71,16.74,12.08,22.04c2.48,12.67-19.85,36.42-19.85,36.42
					s-14.87,1.63-29.09-4.43S1320.4,1427.81,1325.5,1422.36z"/><g opacity=".2"><path fill="#fff" d="M1418.96 1371.95c1.5 1.17 1.38 4.59 1.3 5.98 0 0-2.52 1.3-2.9-.34C1416.97 1375.95 1417.46 1370.78 1418.96 1371.95zM1344.21 1356.1c1.67-1.02 6.6 2.73 6.74 3.41 0 0-3.73 3.38-4.62 3.66C1345.42 1363.46 1342.53 1357.11 1344.21 1356.1zM1324.21 1372.77c1.34-1.43 7.09.85 7.41 1.47 0 0-2.68 4.26-3.47 4.78C1327.37 1379.53 1322.88 1374.2 1324.21 1372.77zM1324.13 1396.93c1.27-1.49 7.12.53 7.47 1.14 0 0-2.49 4.37-3.25 4.93C1327.59 1403.55 1322.86 1398.42 1324.13 1396.93zM1326.84 1423.1c.94-1.34 5.95-.11 6.28.37 0 0-1.73 3.82-2.32 4.34C1330.21 1428.32 1325.9 1424.43 1326.84 1423.1z"/></g></g></g></g><g><path fill="#4094f2" d="M1478.44 1384.63c10.47 12.64 17.24 28.08 18.18 44.55.13 2.19 2.46 3.78 4.53 3.52 2.3-.29 3.65-2.34 3.52-4.53-1.02-17.72-8.45-34.78-19.71-48.38C1481.63 1375.79 1475.1 1380.61 1478.44 1384.63L1478.44 1384.63zM1492.44 1365.91c15.68 20.05 24.98 44.54 25.77 70.04.16 5.22 8.22 4.18 8.05-1.01-.83-26.76-10.85-52.82-27.3-73.86C1495.75 1356.96 1489.22 1361.79 1492.44 1365.91L1492.44 1365.91z"/></g></svg>