<svg xmlns="http://www.w3.org/2000/svg" xmlns:xlink="http://www.w3.org/1999/xlink" version="1.1" id="Layer_1" x="0px" y="0px" viewBox="0 0 1080 1080" enable-background="new 0 0 1080 1080" xml:space="preserve">
<g xmlns="http://www.w3.org/2000/svg" opacity="0.55">
	<path fill="#2A94F4" d="M401.32,412.63c5.372,6.962,12.253,13.539,20.586,17.527l11.001,4.042l1.451-9.01   c-1.112-10.567-2.052-20.078-4.116-28.983c-0.879,3.435-1.991,7.05-3.278,9.664c0,0,1.571-6.517,2.432-13.034   c-2.104-7.771-5.226-15.111-10.267-22.333c-0.16,4.469-0.653,12.525-2.168,17.535c0,0,1.03-13.149-0.236-20.783   c-3.112-3.971-2.338-3.374-6.857-7.356c0.047,4.59-0.107,10.914-1.098,15.176c0,0,0.137-9.382-0.855-16.861   c-3.169-2.668-11.209-9.9-15.139-12.62c0,0-5.074,5.072-5.5,20.979c2.776,3.24,5.526,7.87,10.845,12.174   c0,0-2.463-1.413-10.873-9.437c0.059,6.392-0.813,13.859,1.508,20.639c2.656,1.605,5.57,2.201,13.664,7.138   c0,0-8.18-4.169-12.132-3.162c1.921,4.449,4.782,9.887,8.545,15.307l9.083,5.882L401.32,412.63z"/>
</g>
<g xmlns="http://www.w3.org/2000/svg" opacity="0.55">
	<path fill="#2A94F4" d="M409.33,446.312c7.907,3.848,16.995,6.68,26.232,6.547l11.651-1.271l-2.706-8.716   c-5.694-8.971-10.765-17.072-16.573-24.131c0.74,3.468,1.351,7.2,1.361,10.114c0,0-1.49-6.536-3.616-12.756   c-5.34-6.025-11.399-11.212-19.126-15.44c1.843,4.074,4.983,11.509,5.854,16.671c0,0-4.924-12.236-9.451-18.511   c-4.553-2.173-3.595-1.983-9.412-3.54c2.083,4.091,4.756,9.824,5.764,14.082c0,0-4.048-8.465-8.262-14.722   c-4.025-0.981-14.442-3.885-19.171-4.573c0,0-2.29,6.798,4.401,21.237c3.927,1.668,8.449,4.592,15.127,6.083   c0,0-2.834-0.17-13.934-3.619c2.895,5.699,5.434,12.775,10.527,17.816c3.093,0.257,5.967-0.505,15.413,0.319   c0,0-9.18-0.098-12.273,2.562c3.699,3.13,8.679,6.73,14.459,9.912l10.75,1.23L409.33,446.312z"/>
</g>
<g xmlns="http://www.w3.org/2000/svg">
	<path fill="#CCE9FF" d="M749.336,645.405c-1.604,8.331-6.56,13.3-14.909,14.868c-2.296-1.376-4.836-0.833-7.273-0.834   c-69.097-0.028-138.195-0.028-207.292,0.001c-2.435,0.001-4.978-0.553-7.266,0.851c-9.084-1.892-14.289-7.268-14.99-16.69   c2.156-12.272,0.608-24.642,0.916-36.962c0.288-11.52,0.071-11.525,12.212-9.765c3.965,11.141,1.244,22.64,1.646,33.956   c0.519,14.609,0.129,14.642,14.965,14.644c64.903,0.008,129.806,0.008,194.709,0c12.429-0.002,12.453-0.026,12.456-12.374   c0.011-41.923-0.193-83.848,0.169-125.768c0.073-8.475-2.333-11.511-11.08-11.285c-21.103,0.545-42.229,0.229-63.346,0.122   c-3.278-0.017-6.896,1.187-9.739-1.668c-3.058-10.521-1.582-13.119,9.107-13.048c24.065,0.161,48.152-1.213,72.196,0.797   c1.545,0.129,3.088,0.044,4.473-0.811c6.836,2.765,11.925,7.067,13.063,14.845c-1.326,1.959-0.883,4.186-0.884,6.315   c-0.022,45.494-0.022,90.988,0,136.482C748.473,641.212,748.041,643.436,749.336,645.405z"/>
	<path fill="#CCE9FF" d="M690.012,567.167c-6.832-0.001-13.667-0.131-20.494,0.039c-5.526,0.138-7.921-2.285-7.795-7.812   c0.177-7.759,0.226-15.531-0.015-23.287c-0.178-5.727,2.932-7.949,7.927-8.001c13.972-0.148,27.948-0.15,41.92-0.01   c5.23,0.053,7.898,3.151,7.944,8.339c0.069,7.763-0.091,15.529,0.067,23.289c0.118,5.754-2.846,7.604-8.127,7.484   C704.3,567.048,697.155,567.169,690.012,567.167z"/>
	<path fill="#CCE9FF" d="M512.597,660.29c2.789-2.954,6.416-1.722,9.671-1.725c67.494-0.071,134.988-0.071,202.482,0   c3.257,0.003,6.88-1.228,9.677,1.708C660.484,660.279,586.541,660.284,512.597,660.29z"/>
	<path fill="#CCE9FF" d="M736.293,481.438c-2.812,2.92-6.436,1.677-9.7,1.693c-21.702,0.109-43.42,0.533-65.1-0.167   c-9.275-0.3-12.325,2.909-10.976,11.534c-5.339-6.732-4.435-11.243,2.924-13.684c2.291-0.76,4.808-1.288,7.201-1.218   C685.857,480.33,711.158,477.581,736.293,481.438z"/>
	<path fill="#CCE9FF" d="M749.336,645.405c-2.549-2.152-1.755-5.112-1.757-7.798c-0.039-44.512-0.039-89.024,0-133.536   c0.002-2.686-0.788-5.647,1.778-7.787C749.349,545.991,749.343,595.698,749.336,645.405z"/>
	<path fill="#CCE9FF" d="M702.66,625.321c-4.82-1.847-13.787,3.075-13.856-4.728c-0.079-8.865,9.147-4.531,14.137-4.688   c4.815-0.152,13.724-3.579,13.809,4.089C716.849,628.907,707.493,623.251,702.66,625.321z"/>
	<path fill="#CCE9FF" d="M623.638,624.959c-3.103,0-6.206-0.005-9.31,0.001c-2.928,0.006-4.662-1.19-4.764-4.361   c-0.116-3.6,1.694-5.017,5.096-4.991c5.586,0.043,11.173-0.021,16.758,0.041c3.626,0.04,6.027,1.642,5.847,5.586   c-0.188,4.117-3.439,3.67-6.179,3.756c-2.48,0.078-4.965,0.016-7.448,0.016C623.638,624.991,623.638,624.975,623.638,624.959z"/>
	<path fill="#CCE9FF" d="M663.565,615.237c4.016,2.603,12.958-4.102,12.67,5.399c-0.237,7.81-8.269,4.247-12.612,4.081   c-4.988-0.19-14.178,4.083-14.048-4.754C649.687,612.233,658.604,617.127,663.565,615.237z"/>
	<path fill="#CCE9FF" d="M582.414,624.974c-3.319-1.889-11.477,3.895-11.676-4.509c-0.203-8.582,7.82-3.786,12.163-4.75   c2.93-0.65,6.125-0.131,9.201-0.091c3.06,0.04,5.719,1.029,5.839,4.496c0.119,3.442-2.352,4.754-5.481,4.836   C589.385,625.037,586.307,624.974,582.414,624.974z"/>
	<path fill="#CCE9FF" d="M544.348,615.23c3.932,2.68,12.967-4.193,12.521,5.487c-0.354,7.67-8.335,4.181-12.694,4   c-4.95-0.205-14.163,4.121-13.911-4.851C530.479,612.212,539.357,617.129,544.348,615.23z"/>
	<path fill="#CCE9FF" d="M510.736,596.873c-9.6-1.268-11.716,3.19-11.555,12.282c0.203,11.437,2.502,23.149-1.574,34.445   c-0.021-12.738-0.068-25.476-0.055-38.213C497.564,593.932,499.347,592.8,510.736,596.873z"/>
</g>
<path xmlns="http://www.w3.org/2000/svg" fill="#E8E8E8" d="M803.465,758.191H243.53c-5.955,0-10.782-4.827-10.782-10.782v-7.775c0-5.955,4.827-10.782,10.782-10.782  h559.935c5.955,0,10.782,4.827,10.782,10.782v7.775C814.247,753.364,809.419,758.191,803.465,758.191z"/>
<g xmlns="http://www.w3.org/2000/svg">
	<path fill="#F2F2F2" d="M599.443,583.169H436.494c-19.468,0-35.251-15.782-35.251-35.251v-103.27   c0-19.468,15.782-35.251,35.251-35.251h162.949c19.469,0,35.251,15.782,35.251,35.251v103.27   C634.694,567.387,618.912,583.169,599.443,583.169z"/>
	<path fill="#2A94F4" d="M401.243,433.159c0-13.123,10.638-23.762,23.762-23.762h185.928c13.123,0,23.762,10.638,23.762,23.762   v27.127H401.243V433.159z"/>
	<g>
		<path fill="#0b4870" d="M526.053,471.578c0.033,3.472,0.053,6.944,0.11,10.415c0.012,0.741-0.28,1.056-0.993,1.203    c-3.983,0.82-7.963,1.655-11.932,2.538c-0.825,0.184-0.914-0.168-0.913-0.809c0.009-3.115,0.029-6.23-0.011-9.344    c-0.012-0.902,0.478-1.056,1.196-1.205c3.747-0.778,7.485-1.599,11.227-2.405c0.342-0.074,0.729-0.036,0.955-0.393    C525.813,471.578,525.933,471.578,526.053,471.578z"/>
		<path fill="#0b4870" d="M545.215,536.242c0,4.519-0.113,8.812,0.052,13.096c0.072,1.882-0.488,2.587-2.336,2.883    c-3.246,0.52-6.45,1.309-9.661,2.035c-1.28,0.289-1.912,0.206-1.908-1.441c0.054-20.381,0.05-40.761,0.003-61.142    c-0.003-1.415,0.476-1.712,1.759-1.666c2.454,0.089,4.914,0.026,7.372,0.026c3.086,0,3.086,0,3.749,2.988    c0.33,0.216,0.554,0.001,0.782-0.192c6.866-5.828,17.877-4.925,24.213,4.024c2.583,3.648,4.021,7.766,4.47,12.178    c0.769,7.567,0.304,14.963-3.623,21.769c-5.174,8.967-16.58,11.282-23.88,5.929C545.987,536.566,545.711,536.482,545.215,536.242z     M545.189,514.238c0.026,0,0.053,0,0.079,0c0,2.997,0.046,5.995-0.022,8.99c-0.028,1.235,0.473,1.996,1.458,2.656    c3.957,2.648,8.702,1.712,11.309-2.279c3.168-4.849,3.129-13.723-0.08-18.53c-2.719-4.072-7.707-4.872-11.617-1.898    c-0.776,0.59-1.175,1.222-1.151,2.251C545.233,508.363,545.189,511.301,545.189,514.238z"/>
		<path fill="#0b4870" d="M614.892,524.889c0,3.559-0.008,6.958,0.007,10.357c0.003,0.573-0.296,0.867-0.751,1.101    c-7.566,3.906-21.275,5.165-29.394-1.461c-4.518-3.688-6.771-8.577-7.705-14.187c-1.181-7.098-0.599-13.996,2.731-20.467    c4.946-9.612,15.979-13.711,25.685-9.526c6.377,2.749,9.5,8.153,11.216,14.541c1.131,4.208,1.212,8.517,1.061,12.848    c-0.045,1.291-0.692,1.398-1.719,1.395c-7.914-0.025-15.828,0.029-23.74-0.05c-1.607-0.016-1.918,0.373-1.497,1.898    c1.02,3.693,4.071,6.112,8.397,6.394c5.102,0.334,10.044-0.311,14.717-2.513C614.156,525.099,614.44,525.038,614.892,524.889z     M597.484,509.312c1.911,0,3.825-0.057,5.734,0.021c1.151,0.047,1.399-0.4,1.346-1.47c-0.2-4.094-3.158-7.357-6.829-7.426    c-3.817-0.071-7.048,3.24-7.304,7.404c-0.064,1.046,0.13,1.546,1.32,1.493C593.658,509.25,595.573,509.312,597.484,509.312z"/>
		<path fill="#0b4870" d="M418.758,529.873c0-1.679,0.053-3.361-0.017-5.037c-0.052-1.234,0.152-1.614,1.44-0.962    c3.989,2.019,8.208,3.307,12.687,3.702c1.401,0.124,2.765-0.001,4.078-0.435c2.523-0.834,3.06-3.448,1.081-5.219    c-1.417-1.268-3.219-1.828-4.956-2.476c-2.413-0.901-4.852-1.726-7.161-2.889c-4.686-2.361-7.687-5.884-7.769-11.356    c-0.088-5.868,2.228-10.484,7.429-13.413c4.866-2.741,10.188-2.906,15.564-2.418c2.868,0.26,5.661,0.951,8.396,1.883    c0.884,0.301,1.222,0.738,1.21,1.678c-0.046,3.538-0.037,7.076-0.005,10.614c0.009,0.937-0.195,1.179-1.109,0.727    c-3.587-1.774-7.41-2.691-11.386-3.053c-1.275-0.116-2.515-0.028-3.746,0.256c-1.206,0.278-2.07,0.972-2.29,2.243    c-0.21,1.21,0.411,2.076,1.339,2.748c1.179,0.854,2.538,1.341,3.894,1.82c2.541,0.897,5.121,1.684,7.559,2.855    c5.794,2.782,8.749,7.3,8.324,13.798c-0.41,6.263-3.706,10.536-9.461,12.809c-7.198,2.843-14.464,2.129-21.674-0.06    c-3.442-1.045-3.425-1.1-3.425-4.756C418.757,531.912,418.757,530.893,418.758,529.873z"/>
		<path fill="#0b4870" d="M456.159,503.851c0-7.072,0.04-14.144-0.035-21.215c-0.015-1.38,0.448-1.842,1.748-2.081    c3.53-0.648,7.042-1.403,10.538-2.217c1.061-0.247,1.222,0.095,1.215,1.012c-0.024,3.056,0.049,6.114-0.011,9.169    c-0.023,1.162,0.309,1.581,1.518,1.54c2.514-0.086,5.034,0.013,7.55-0.044c1.105-0.025,1.632,0.23,1.598,1.486    c-0.079,2.994-0.071,5.993-0.002,8.988c0.026,1.14-0.402,1.425-1.464,1.4c-2.576-0.061-5.154,0.017-7.73-0.038    c-1.065-0.023-1.476,0.293-1.468,1.423c0.046,6.053-0.04,12.107,0.043,18.159c0.063,4.562,2.777,6.607,7.426,5.788    c3.17-0.558,3.17-0.558,3.17,2.685c0,2.217-0.037,4.436,0.019,6.652c0.021,0.859-0.277,1.354-1.075,1.61    c-5.153,1.653-10.359,2.319-15.403-0.14c-5.471-2.668-7.764-7.405-7.797-13.328c-0.039-6.949-0.009-13.899-0.009-20.849    C456.046,503.851,456.103,503.851,456.159,503.851z"/>
		<path fill="#0b4870" d="M497.435,494c2.471-3.816,5.828-4.852,9.823-4.349c1.212,0.153,1.876,0.594,1.814,2.057    c-0.133,3.111-0.089,6.232-0.017,9.346c0.029,1.252-0.282,1.667-1.612,1.486c-2.743-0.374-5.373-0.044-7.656,1.768    c-0.96,0.762-1.426,1.607-1.42,2.895c0.049,9.828-0.005,19.656,0.062,29.483c0.01,1.491-0.372,1.94-1.882,1.891    c-3.532-0.113-7.071-0.064-10.606-0.019c-0.983,0.013-1.362-0.252-1.36-1.302c0.028-15.281,0.03-30.563-0.003-45.844    c-0.002-1.145,0.417-1.419,1.47-1.399c2.875,0.054,5.757,0.112,8.627-0.019c1.531-0.07,2.214,0.419,2.281,1.933    C496.983,492.512,497.216,493.087,497.435,494z"/>
		<path fill="#0b4870" d="M512.33,514.182c0-7.488,0.033-14.975-0.031-22.462c-0.011-1.344,0.349-1.755,1.706-1.718    c3.472,0.093,6.949,0.081,10.421,0.005c1.284-0.028,1.763,0.265,1.758,1.674c-0.051,15.095-0.047,30.189-0.005,45.284    c0.003,1.272-0.38,1.628-1.625,1.601c-3.532-0.076-7.07-0.099-10.601,0.009c-1.426,0.044-1.66-0.477-1.651-1.751    C512.358,529.277,512.33,521.73,512.33,514.182z"/>
		<path fill="#FDFDFE" d="M545.189,514.238c0-2.937,0.044-5.875-0.024-8.811c-0.024-1.029,0.375-1.661,1.151-2.251    c3.91-2.974,8.898-2.174,11.617,1.898c3.21,4.806,3.248,13.681,0.08,18.53c-2.608,3.992-7.352,4.928-11.309,2.279    c-0.985-0.659-1.486-1.42-1.458-2.656c0.068-2.995,0.022-5.993,0.022-8.99C545.242,514.238,545.215,514.238,545.189,514.238z"/>
		<path fill="#FDFDFE" d="M597.484,509.312c-1.911,0-3.826-0.062-5.733,0.023c-1.19,0.053-1.384-0.448-1.32-1.493    c0.256-4.163,3.487-7.475,7.304-7.404c3.671,0.068,6.629,3.331,6.829,7.426c0.052,1.07-0.196,1.517-1.346,1.47    C601.309,509.255,599.396,509.312,597.484,509.312z"/>
	</g>
</g>
<g xmlns="http://www.w3.org/2000/svg">
	<g>
		<g>
			<path fill="#B97A59" d="M372.221,497.376l28.345-5.838l2.847-6.196c0,0-0.339-0.167-1.65,0.868     c-0.372,0.292-1.033,2.313-1.53,2.464c-0.664,0.199-2.167,1.874-3.071,1.613c-6.535-1.87-15.91-5.918-23.595-5.541     C361.2,485.35,371.79,497.657,372.221,497.376z"/>
			<path fill="#0b4870" d="M298.396,507.782c0,0,6.753-9.499,36.8-17.39c30.697-8.061,30.554-5.971,30.554-5.971l7.203-0.08     l3.101,12.689l-48.661,15.264L298.396,507.782z"/>
			<path fill="#0b4870" d="M314.072,516.657l33.48-11.268l11.77-5.256l-5.82,0.669c0,0-3.575,0.69-21.496,5.116     c-10.097,2.487-13.951,4.187-19.101,6.522L314.072,516.657z"/>
			<polygon fill="#0b4870" points="367.758,488.094 369.213,496.249 369.847,498.255 375.747,496.976 372.12,488.258    "/>
		</g>
		<path fill="#B97A59" d="M400.588,481.276c1.81-1.326,4.829-4.082,4.998-2.62l-5.212,5.142l-1.381,3.315l0.993,2.718l-2.382,0.431    c-0.568,0.731-1.068,1.22-2.234,0.241l-0.993,0.218c0.608-2.677,0.786-3.824,1.255-4.519l2.182-2.714    C398.41,482.669,400.588,481.276,400.588,481.276z"/>
	</g>
	<path fill="#0b4870" d="M293.033,589.766c0,0,14.607,51.712,26.309,70.225c11.703,18.516,15.784-5.569,15.784-5.569   s-1.057-32.607-2.855-43.284c-1.829-10.86-11.675-42.712-11.675-42.712l-33.996-0.213   C286.599,568.213,287.459,569.975,293.033,589.766z"/>
	<path fill="#0b4870" d="M309.172,568.419c0,0-9.786,84.833-11.188,89.095c-4.736,14.42-15.565,5.109-17.235,0.303   c-1.673-4.805-4.459-40.373-3.902-66.328c0.554-25.956,0.554-24.254,0.554-24.254L309.172,568.419z"/>
	<path fill="#0b4870" d="M279.354,734.983c-0.505,0.609-0.135,2.217-0.135,2.217s8.801,0.978,11.633,0.313   c0.735-0.172,1.979-0.804,3.15-1.475c0.197-0.114,0.547-0.79,0.738-0.904c0.354-0.211,0.54,0.142,0.841-0.049   c0.786-0.495,1.336-0.878,1.345-0.928c0.774-4.036-0.256-5.66-0.256-5.66s-7.495-2.492-8.898-0.756   C284.466,731.826,280.454,733.647,279.354,734.983z"/>
	<path fill="#0b4870" d="M334.085,731.361l1.254,6.555h6.688c0,0,0.371-0.927,0.937-0.927c0.476,0,1.093,0.927,1.742,0.927   c1.407,0,2.966,0,3.591,0c1.254,0,13.421,0,13.421,0s0.304-1.378-0.066-1.854c-0.19-0.243-1.308-0.668-2.055-0.878   c-3.453-0.97-13.341-3.998-15.06-7.298C342.446,723.869,334.085,731.361,334.085,731.361z"/>
	<path fill="#FFFFFF" d="M292.299,476.033c0.525,2.103-0.211,4.096-1.642,4.452l0,0c-1.431,0.356-3.015-1.06-3.538-3.164   l-0.66-2.645c-0.525-2.103,0.213-4.097,1.642-4.452l0,0c1.432-0.356,3.015,1.06,3.539,3.163L292.299,476.033z"/>
	<path fill="#B97A59" d="M302.714,493.061c-0.25,2.98-1.163,1.987-2.85,2.109c-1.598,0-3.197,0-4.797,0   c-1.686-0.122-1.475,1.261-1.725-1.718c-0.393-4.913-2.599-13.796-2.993-18.71c-0.261-2.948,0.891-8.864,3.444-10.612   c2.334-1.555,5.012-1.555,7.346,0c2.552,1.747,3.705,7.664,3.443,10.612C304.289,479.407,303.242,487.808,302.714,493.061z"/>
	<path fill="#B97A59" d="M259.939,556.141l21.736,22.245c0,0-26.21-6.012-27.375-16.857   C253.134,550.683,259.939,556.141,259.939,556.141z"/>
	<path fill="#0b4870" d="M327.4,492.808l-19.767,4.487l-9.513,2.84l-11.761-1.343l-12.959,5.615c0,0-5.851,5.62-0.417,23.677   c5.436,18.058,3.345,46.347,3.345,46.347l46.123,2.056c0,0,1.686-26.32,3.93-52.307C328.14,503.805,325.357,497.27,327.4,492.808z"/>
	<path fill="#0b4870" d="M281.764,505.211c0,0-7.186-5.625-14.213,4.815c-10.782,16.021-17.974,33.705-19.228,37.317   c-1.253,3.611-2.926,14.447,2.092,17.656c5.015,3.213,5.015,3.213,5.015,3.213l10.449-6.422l-1.67-3.21l-0.838-2.007   c0,0,5.852-12.841,12.12-24.479C281.764,520.46,281.764,505.211,281.764,505.211z"/>
	<path fill="#B97A59" d="M305.899,481.898c-0.769,2.78-1.915,3.443-3.946,3.747c-1.932,0.192-2.403,0.383-4.335,0.576   c-2.046,0.1-4.135-2.612-4.611-5.089c-0.763-4.087-2.987-7.443-3.749-11.528c-0.492-2.448,0.557-4.643,3.54-6.417   c2.731-1.587,5.968-4.833,8.879-3.805c3.189,1.164,4.929,6.002,4.782,8.513C307.504,472.058,306.84,477.755,305.899,481.898z"/>
	<polygon fill="#0b4870" points="297.985,500.206 294.116,506.546 286.493,498.105 289.861,494.48  "/>
	<polygon fill="#0b4870" points="306.005,494.376 301.39,499.043 304.485,504.536 308.266,497.295  "/>
	<path fill="#0b4870" d="M300.461,621.32c0,0-2.168,32.174-1.858,49.188c0.231,12.828,0.018,37.028-1.934,57.988   c-0.119,1.28-7.764-1.299-7.764-1.299s-9.614-78.197-10.729-91.336C277.062,622.723,292.102,611.933,300.461,621.32z"/>
	<path fill="#0b4870" d="M331.51,656.934c0,0-2.957,0.647-12.262,1.453c-4.24,0.366,14.837,72.974,14.837,72.974l6.482-4.235   l-5.663-74.604L331.51,656.934z"/>
	<path fill="#0b4870" d="M287.769,466.411l1.49,3.192c0,0,3.161-3.561,5.391-6.48c0.703-0.922,7.922-1.004,9.713-0.683   c1.304,0.234,1.457,1.904,1.755,2.876c1.072,3.469-0.457-5.845-0.457-5.845s-2.447-4.384-7.035-4.75   c-2.535-0.203-3.716,1.27-4.677,3.182c-0.226,0.447,2.792-0.727,2.269-0.793c-0.133-0.015-3.101,2.589-3.192,2.788   c-0.451,0.99-0.937,1.989-1.586,2.861C288.992,466.045,287.769,466.411,287.769,466.411z"/>
	<polygon fill="#0b4870" points="255.197,566.176 264.208,558.58 267.732,563.391 258.91,570.585  "/>
	<g>
		<g>
			<path fill="#B97A59" d="M275.223,569.892c1.448,0.433,1.368,0.344,1.368,0.344s-0.079,1.935,1.068,3.352     c0.57,0.705,2.685,2.68,2.685,2.68l3.105,2.97l1.547,1.258c0,0,0.931,0.648,1.023,0.993c0.266,0.994-0.585,0.825-0.585,0.825     l-6.426-4.375l4.853,5.656c0,0,0.502,0.829,0.194,1.23c-0.287,0.374-0.503,0.153-0.503,0.153l-6.971-5.105l2.179,3.2     c0,0,0.472,0.822,0.193,1.229c-0.307,0.446-0.377,0.577-0.377,0.577l-5.318-5.896     C273.257,578.981,273.774,569.461,275.223,569.892z"/>
			<path fill="#B97A59" d="M278.324,579.154l3.186,4.178c0,0,0.814,0.858,0.947,1.49c0.154,0.726-0.466,0.88-0.466,0.88     l-5.411-5.831L278.324,579.154z"/>
		</g>
	</g>
	<path fill="#0b4870" d="M297.668,575.224h4.874c5.098-25.252,4.857-51.307-0.753-76.472c-1.471,0.588-2.941,1.179-4.41,1.768   C302.83,525.118,302.918,550.599,297.668,575.224z"/>
</g>
<path xmlns="http://www.w3.org/2000/svg" fill="#AD6D51" d="M303.567,485.449c0,0-7.69,1.645-11.163-5.245c0,0,0.11,8.277,10.889,7.762L303.567,485.449z"/>
<path xmlns="http://www.w3.org/2000/svg" fill="#0b4870" d="M307.576,474.844c0,0-0.362-6.193-2.95-8.426c-2.588-2.233-10.645-0.265-11.469,4.954  c-0.824,5.219-0.732,8.011-0.732,8.011l-0.778-2.106c0,0-0.458,6.363,0,8.149s-2.884-3.479-3.983-7.416  c-1.099-3.937-3.25-7.87,0.32-14.808s13.825-7.762,13.825-7.762l-2.839,1.831c0,0,5.678-2.838,9.157-1.099l-3.9,1.648l6.829,1.648  l-4.789,0.183l5.796,2.747h-3.662L307.576,474.844z"/>
<path xmlns="http://www.w3.org/2000/svg" fill="#B97A59" d="M301.39,494.376h4.615c0,0-3.63,5.797-8.02,5.831c-4.39,0.033-8.124-5.727-8.124-5.727l3.763-0.104H301.39z"/>
<g xmlns="http://www.w3.org/2000/svg">
	<path fill="#2A94F4" d="M461.516,727.556c0,2.266-1.837,4.104-4.104,4.104h-15.829c-2.266,0-4.104-1.837-4.104-4.104v-36.934   c0-2.266,1.837-4.104,4.104-4.104h15.829c2.266,0,4.104,1.837,4.104,4.104V727.556z"/>
	<path opacity="0.4" fill="#2A94F4" d="M451.396,644.003c0,0-12.958,26.34,6.134,30.826c19.093,4.486,19.643-15.383,17.687-23.571   s28.34-30.202,3.353-49.677C453.583,582.106,434.109,633.956,451.396,644.003z"/>
	<path opacity="0.4" fill="#2A94F4" d="M427.268,658.302c0,0-0.61,17.333,10.766,15.131c11.376-2.203,6.865-13.045,3.829-16.985   c-3.036-3.94,7.966-23.137-10.215-27.587C413.467,624.41,415.518,657.07,427.268,658.302z"/>
	<line fill="none" stroke="#4D4D4D" stroke-miterlimit="10" x1="429.208" y1="641.963" x2="443.278" y2="686.518"/>
	<polyline fill="none" stroke="#4D4D4D" stroke-miterlimit="10" points="437.416,651.035 434.436,658.517 427.645,654.776  "/>
	<line fill="none" stroke="#4D4D4D" stroke-miterlimit="10" x1="466.657" y1="616.754" x2="454.587" y2="686.518"/>
	<polyline fill="none" stroke="#4D4D4D" stroke-miterlimit="10" points="473.738,627.306 463.739,633.622 457.323,624.961  "/>
	<polyline fill="none" stroke="#4D4D4D" stroke-miterlimit="10" points="471.002,641.936 461.003,648.252 454.587,639.591  "/>
</g>
<path xmlns="http://www.w3.org/2000/svg" opacity="0.4" fill="#2A94F4" d="M777.171,713.623c0,0,62.652-57.067,125.304-14.315c0,0-30.744-39.327-74.924-33.463  C783.37,671.708,777.171,713.623,777.171,713.623z"/>
<path xmlns="http://www.w3.org/2000/svg" opacity="0.4" fill="#2A94F4" d="M779.088,715.919c0,0,8.149-84.354,83.289-94.705c0,0-49.185-8.523-78.003,25.473  C755.555,680.685,779.088,715.919,779.088,715.919z"/>
<path xmlns="http://www.w3.org/2000/svg" fill="#0b4870" d="M778.539,715.556c0,0,29.358-79.499,104.656-70.378c0,0-45.394-20.765-81.918,4.774  S778.539,715.556,778.539,715.556z"/>
<path xmlns="http://www.w3.org/2000/svg" fill="#2A94F4" d="M751.496,715.383c0,8.848,7.173,16.02,16.02,16.02h24.637c8.848,0,16.02-7.173,16.02-16.02l0,0  c0-8.848-7.173-16.02-16.02-16.02h-24.637C758.669,699.362,751.496,706.535,751.496,715.383L751.496,715.383z"/>
<rect xmlns="http://www.w3.org/2000/svg" x="327.809" y="438.218" transform="matrix(0.9025 0.4306 -0.4306 0.9025 227.0313 -102.4689)" opacity="0.41" fill="#2A94F4" width="24.124" height="24.124"/>
<circle xmlns="http://www.w3.org/2000/svg" opacity="0.22" fill="#2A94F4" cx="384.127" cy="463.337" r="9.863"/>
<rect xmlns="http://www.w3.org/2000/svg" x="699.843" y="434.798" transform="matrix(0.9025 0.4306 -0.4306 0.9025 261.8213 -263.0112)" opacity="0.41" fill="#0E538C" width="24.124" height="24.124"/>
<circle xmlns="http://www.w3.org/2000/svg" opacity="0.22" fill="#0E538C" cx="756.162" cy="459.917" r="9.863"/>
</svg>